<svg width="36" height="34" viewBox="0 0 36 34" fill="none" xmlns="http://www.w3.org/2000/svg">
<path d="M12.4346 20.1932C12.256 19.8838 11.9258 19.6932 11.5686 19.6932H2C1.44772 19.6932 1 19.2455 1 18.6932V15.5769C1 15.0246 1.44772 14.5769 2 14.5769H11.5686C11.9258 14.5769 12.256 14.3863 12.4346 14.0769C12.6132 13.7675 12.6132 13.3863 12.4346 13.0769L7.65031 4.79021C7.37416 4.31192 7.53804 3.70033 8.01633 3.42418L10.7151 1.86603C11.1934 1.58988 11.805 1.75376 12.0812 2.23205L16.8655 10.5187C17.0441 10.8281 17.3742 11.0187 17.7315 11.0187C18.0887 11.0187 18.4189 10.8281 18.5975 10.5187L23.3818 2.23205C23.6579 1.75376 24.2695 1.58988 24.7478 1.86603L27.4466 3.42418C27.9249 3.70033 28.0888 4.31192 27.8127 4.79021L23.0284 13.0769C22.8497 13.3863 22.8497 13.7675 23.0284 14.0769C23.207 14.3863 23.5371 14.5769 23.8944 14.5769H33.463C34.0153 14.5769 34.463 15.0246 34.463 15.5769V18.6932C34.463 19.2455 34.0153 19.6932 33.463 19.6932H23.8944C23.5371 19.6932 23.207 19.8838 23.0284 20.1932C22.8497 20.5026 22.8497 20.8838 23.0284 21.1932L27.8127 29.4798C28.0888 29.9581 27.9249 30.5697 27.4466 30.8458L24.7478 32.404C24.2695 32.6801 23.6579 32.5162 23.3818 32.0379L18.5975 23.7513C18.4189 23.4419 18.0887 23.2513 17.7315 23.2513C17.3742 23.2513 17.0441 23.4419 16.8655 23.7513L12.0812 32.0379C11.805 32.5162 11.1934 32.6801 10.7151 32.404L8.01634 30.8458C7.53804 30.5697 7.37417 29.9581 7.65031 29.4798L12.4346 21.1932C12.6132 20.8838 12.6132 20.5026 12.4346 20.1932Z" fill="#602803" stroke="#602803" stroke-width="2" stroke-linecap="square" stroke-linejoin="round"/>
</svg>
