<svg width="1440" height="627" viewBox="0 0 1440 627" fill="none" xmlns="http://www.w3.org/2000/svg">
<path d="M1568.92 5.56435L1555.28 1M1568.92 5.56435H1528.51M1568.92 5.56435L1583 10.2794M1568.92 5.56435H1597.53M1555.28 1L1560.24 1.00178L1565.15 1.01166L1569.96 1.03945L1574.62 1.09418L1579.07 1.18299L1583.28 1.31667L1587.18 1.50237L1590.81 1.73918L1593.92 2.06663L1596.75 2.4461L1597.53 2.57902V5.56435M1555.28 1H1515.53M1515.53 1H1475.78M1515.53 1L1528.51 5.56435M1475.78 1H1436.03M1475.78 1L1488.11 5.56435M1436.03 1H1396.28M1436.03 1L1447.71 5.56435M1396.28 1H1356.53M1396.28 1L1407.31 5.56435M1356.53 1H1316.77M1356.53 1L1366.91 5.56435M1316.77 1H1277.02M1316.77 1L1326.51 5.56435M1277.02 1H1237.27M1277.02 1L1286.11 5.56435M1237.27 1H1197.52M1237.27 1L1245.71 5.56435M1197.52 1H1157.77M1197.52 1L1205.31 5.56435M1157.77 1H1118.02M1157.77 1L1164.91 5.56435M1118.02 1H1078.26M1118.02 1L1124.51 5.56435M1078.26 1H1038.51M1078.26 1L1079.71 2.12763L1081.89 3.83479L1084.11 5.56435M1038.51 1H998.761M1038.51 1L1039.79 2.12763L1043.71 5.56435M998.761 1H959.01M998.761 1L1003.3 5.56435M959.01 1H919.257M959.01 1L960.455 2.69457L961.919 4.40891L962.411 4.98574L962.905 5.56435M919.257 1H879.506M919.257 1L920.462 2.69457L920.868 3.26333L921.275 3.83479L922.504 5.56435M879.506 1H839.755M879.506 1L882.103 5.56435M839.755 1L839.995 1.56246L840.235 2.12763L841.455 4.98574L841.702 5.56435M839.755 1H800.004M800.004 1H760.251M800.004 1L801.302 5.56435M760.251 1H720.5M760.251 1L760.493 2.69457L760.901 5.56435M720.5 1H680.749M720.5 1V5.56435M680.749 1H640.996M680.749 1L680.508 2.69457L680.099 5.56435M640.996 1H601.245M640.996 1L639.698 5.56435M601.245 1L601.005 1.56246L600.765 2.12763L599.545 4.98574L599.298 5.56435M601.245 1H561.494M561.494 1H521.742M561.494 1L559.227 4.98574L558.897 5.56435M521.742 1H481.991M521.742 1L520.538 2.69457L520.132 3.26333L519.317 4.40891L518.908 4.98574L518.496 5.56435M481.991 1H442.239M481.991 1L480.545 2.69457L479.081 4.40891L478.589 4.98574L478.095 5.56435M442.239 1H402.488M442.239 1L437.695 5.56435M402.488 1H362.736M402.488 1L401.205 2.12763L397.294 5.56435M362.736 1H322.984M362.736 1L356.893 5.56435M322.984 1H283.233M322.984 1L316.493 5.56435M283.233 1H243.481M283.233 1L276.092 5.56435M243.481 1H203.73M243.481 1L235.691 5.56435M203.73 1H163.978M203.73 1L195.29 5.56435M163.978 1H124.227M163.978 1L154.889 5.56435M124.227 1H84.475M124.227 1L114.488 5.56435M84.475 1H44.7237M84.475 1L74.0877 5.56435M44.7237 1H4.97242M44.7237 1L33.6869 5.56435M4.97242 1H-34.7798M4.97242 1L-6.71397 5.56435M-34.7798 1H-74.5311M-34.7798 1L-47.1139 5.56435M-74.5311 1H-114.282M-74.5311 1L-87.5147 5.56435M-114.282 1L-119.243 1.00178L-124.153 1.01166L-128.96 1.03945L-133.616 1.09418L-138.071 1.18299L-142.276 1.31667L-146.181 1.50237L-149.807 1.73918L-152.917 2.06663L-155.749 2.4461L-156.528 2.57904V5.56435M-114.282 1L-127.916 5.56435M-47.1139 5.56435H-6.71397M-47.1139 5.56435H-87.5147M-47.1139 5.56435L-59.8591 10.2794M-6.71397 5.56435L-18.7877 10.2794M-6.71397 5.56435H33.6869M114.488 5.56435H154.889M114.488 5.56435H74.0877M114.488 5.56435L112.005 6.72877L104.427 10.2794M154.889 5.56435L145.499 10.2794M154.889 5.56435H195.29M276.092 5.56435H316.493M276.092 5.56435H235.691M276.092 5.56435L274.27 6.72877L273.353 7.31368L268.713 10.2794M316.493 5.56435L315.666 6.14477L314.836 6.72877L309.785 10.2794M316.493 5.56435H356.893M437.695 5.56435L437.116 6.14477L432.999 10.2794M437.695 5.56435H478.095M437.695 5.56435H397.294M478.095 5.56435L477.102 6.72877L476.601 7.31368L476.1 7.90217L474.071 10.2794M478.095 5.56435H518.496M599.298 5.56435H639.698M599.298 5.56435H558.897M599.298 5.56435L597.286 10.2794M639.698 5.56435L639.533 6.14477L639.368 6.72877L639.2 7.31368L638.696 9.08543L638.357 10.2794M639.698 5.56435H680.099M760.901 5.56435H801.302M760.901 5.56435H720.5M760.901 5.56435L761.571 10.2794M801.302 5.56435L801.467 6.14477L801.632 6.72877L801.8 7.31368L802.643 10.2794M801.302 5.56435H841.702M922.504 5.56435H962.905M922.504 5.56435H882.103M922.504 5.56435L923.332 6.72877L925.009 9.08543L925.432 9.68109L925.858 10.2794M962.905 5.56435L963.898 6.72877L964.399 7.31368L964.9 7.90217L966.929 10.2794M962.905 5.56435H1003.3M1084.11 5.56435H1124.51M1084.11 5.56435H1043.71M1084.11 5.56435L1085.6 6.72877L1086.35 7.31368L1090.14 10.2794M1124.51 5.56435L1125.33 6.14477L1126.16 6.72877L1131.21 10.2794M1124.51 5.56435H1164.91M1245.71 5.56435H1286.11M1245.71 5.56435H1205.31M1245.71 5.56435L1247.86 6.72877L1248.95 7.31368L1254.43 10.2794M1286.11 5.56435L1295.5 10.2794M1286.11 5.56435H1326.51M1407.31 5.56435H1447.71M1407.31 5.56435H1366.91M1407.31 5.56435L1418.72 10.2794M1447.71 5.56435L1459.79 10.2794M1447.71 5.56435H1488.11M-156.669 48.2477H-156.528M-116.005 48.2477L-100.581 42.2238M-116.005 48.2477L-132.021 54.5021M-116.005 48.2477H-69.5329M-116.005 48.2477H-156.528M-100.581 42.2238H-146.196M-100.581 42.2238L-85.7141 36.4178M-100.581 42.2238H-54.9651M-146.196 42.2238L-130.504 36.4178M-146.196 42.2238H-156.528M-146.196 42.2238L-156.528 46.0454M-100.765 25.4142H-57.5405M-100.765 25.4142L-86.6615 20.1958M-100.765 25.4142H-143.989M-100.765 25.4142L-115.37 30.8182M-57.5405 25.4142L-44.1786 20.1958M-57.5405 25.4142L-71.3765 30.8182M-57.5405 25.4142H-14.3158M-86.6615 20.1958H-44.1786M-86.6615 20.1958L-73.0337 15.1542M-86.6615 20.1958H-129.143M-44.1786 20.1958H-1.69664M-44.1786 20.1958L-31.2689 15.1542M-156.973 143.33H-156.528M-119.474 143.33L-99.5839 133.342M-119.474 143.33L-140.353 153.814M-119.474 143.33H-59.4754M-119.474 143.33H-156.528M-99.5839 133.342L-80.6136 123.817M-99.5839 133.342H-41.0067M-99.5839 133.342H-156.528M-137.836 123.817H-80.6136M-137.836 123.817L-118.43 114.723M-137.836 123.817H-156.528M-137.836 123.817L-156.528 132.577M-99.8826 106.03H-45.1908M-99.8826 106.03L-82.1375 97.7138M-99.8826 106.03H-154.574M-99.8826 106.03L-118.43 114.723M-45.1908 106.03L-28.6278 97.7138M-45.1908 106.03L-62.5021 114.723M-45.1908 106.03H9.50191M-82.1375 97.7138H-28.6278M-82.1375 97.7138H-135.646M-82.1375 97.7138L-65.1432 89.7495M-28.6278 97.7138L-12.7673 89.7495M-28.6278 97.7138H24.8809M-33.2267 74.7915H17.0215M-33.2267 74.7915L-18.2213 67.7593M-33.2267 74.7915H-83.4749M-33.2267 74.7915L-48.8542 82.1153M17.0215 74.7915L31.0265 67.7593M17.0215 74.7915L2.43635 82.1153M17.0215 74.7915H67.2706M-18.2213 67.7593H31.0265M-18.2213 67.7593H-67.4692M-18.2213 67.7593L-3.80152 61.0015M31.0265 67.7593L44.4852 61.0015M31.0265 67.7593H80.2753M23.4119 48.2477H69.8843M23.4119 48.2477L36.2659 42.2238M23.4119 48.2477H-23.0605M23.4119 48.2477L10.0656 54.5021M69.8843 48.2477L81.8813 42.2238M69.8843 48.2477L57.4278 54.5021M69.8843 48.2477H116.357M36.2659 42.2238H81.8813M36.2659 42.2238H-9.34963M36.2659 42.2238L48.6548 36.4178M81.8813 42.2238L93.4444 36.4178M81.8813 42.2238H127.497M72.1326 25.4142H115.357M72.1326 25.4142L83.2672 20.1958M72.1326 25.4142H28.9089M72.1326 25.4142L60.6024 30.8182M115.357 25.4142L125.749 20.1958M115.357 25.4142L104.595 30.8182M115.357 25.4142H158.582M83.2672 20.1958H125.749M83.2672 20.1958L94.0264 15.1542M83.2672 20.1958H40.7853M125.749 20.1958H168.232M125.749 20.1958L135.791 15.1542M-125.789 316.48L-97.7951 296.8M-125.789 316.48L-155.767 337.553M-125.789 316.48H-41.1602M-125.789 316.48H-156.528M-97.7951 296.8L-71.593 278.381M-97.7951 296.8H-15.9657M-97.7951 296.8H-156.528M-98.3634 244.868H-23.9211M-98.3634 244.868L-74.4415 229.581M-98.3634 244.868L-123.77 261.105M-98.3634 244.868H-156.528M-23.9211 244.868L-2.17444 229.581M-23.9211 244.868L-47.018 261.105M-23.9211 244.868H50.5212M-74.4415 229.581H-2.17444M-74.4415 229.581H-146.709M-74.4415 229.581L-51.8773 215.16M-2.17444 229.581L18.3389 215.16M-2.17444 229.581H70.0935M-10.3865 188.644H56.0583M-10.3865 188.644L8.73175 176.427M-10.3865 188.644H-76.8305M-10.3865 188.644L-30.5591 201.537M56.0583 188.644L73.4381 176.427M56.0583 188.644L37.7184 201.537M56.0583 188.644H122.502M8.73175 176.427H73.4381M8.73175 176.427H-55.9746M8.73175 176.427L26.8744 164.832M73.4381 176.427L89.9317 164.832M73.4381 176.427H138.144M60.5202 143.33H120.519M60.5202 143.33L76.1487 133.342M60.5202 143.33H0.522414M60.5202 143.33L44.1162 153.814M120.519 143.33L134.726 133.342M120.519 143.33L105.605 153.814M120.519 143.33H180.517M76.1487 133.342H134.726M76.1487 133.342H17.5715M76.1487 133.342L91.0536 123.817M134.726 133.342L148.276 123.817M134.726 133.342H193.303M118.886 106.03H173.578M118.886 106.03L131.899 97.7138M118.886 106.03H64.1937M118.886 106.03L105.284 114.723M173.578 106.03L185.409 97.7138M173.578 106.03L161.213 114.723M173.578 106.03H228.27M131.899 97.7138H185.409M131.899 97.7138H78.3906M131.899 97.7138L144.361 89.7495M185.409 97.7138L196.738 89.7495M185.409 97.7138H238.918M167.767 74.7915H218.015M167.767 74.7915L178.771 67.7593M167.767 74.7915H117.519M167.767 74.7915L156.307 82.1153M218.015 74.7915L219.289 73.8971L228.019 67.7593M218.015 74.7915L207.598 82.1153M218.015 74.7915H268.264M178.771 67.7593H228.019M178.771 67.7593H129.523M178.771 67.7593L189.346 61.0015M228.019 67.7593L237.632 61.0015M228.019 67.7593H277.268M209.302 48.2477H255.775M209.302 48.2477L218.729 42.2238M209.302 48.2477H162.829M209.302 48.2477L199.515 54.5021M255.775 48.2477L264.344 42.2238M255.775 48.2477L252.478 50.5657L246.877 54.5021M255.775 48.2477H302.247M218.729 42.2238H264.344M218.729 42.2238H173.113M218.729 42.2238L227.813 36.4178M264.344 42.2238L272.603 36.4178M264.344 42.2238H309.96M245.03 25.4142H288.255M245.03 25.4142L253.196 20.1958M245.03 25.4142H201.807M245.03 25.4142L236.575 30.8182M288.255 25.4142L293.847 21.484L294.764 20.8381L295.679 20.1958M288.255 25.4142L280.568 30.8182M288.255 25.4142H331.48M253.196 20.1958H295.679M253.196 20.1958L261.086 15.1542M253.196 20.1958H210.714M295.679 20.1958H338.161M295.679 20.1958L302.85 15.1542M-95.1266 540.654H21.392M-95.1266 540.654L-58.4376 503.809M-95.1266 540.654L-135.442 581.142M-95.1266 540.654L-156.528 540.655M21.392 540.654L52.8399 503.809M21.392 540.654L-13.1647 581.142M21.392 540.654H137.91M-58.4376 503.809H52.8399M-58.4376 503.809L-24.9068 470.136M-58.4376 503.809H-156.528M52.8399 503.809L81.5799 470.136M52.8399 503.809H164.116M34.1802 410.797H132.226M34.1802 410.797L60.3448 384.521M34.1802 410.797H-63.8651M34.1802 410.797L5.85585 439.242M132.226 410.797L154.653 384.521M132.226 410.797L107.948 439.242M132.226 410.797H230.272M60.3448 384.521H154.653M60.3448 384.521H-33.9631M60.3448 384.521L84.5882 360.175M154.653 384.521L175.433 360.175M154.653 384.521H248.961M128.098 316.48H212.727M128.098 316.48L147.694 296.8M128.098 316.48H43.4685M128.098 316.48L107.113 337.553M212.727 316.48L229.523 296.8M212.727 316.48L194.74 337.553M212.727 316.48H297.355M147.694 296.8H229.523M147.694 296.8H65.8637M147.694 296.8L166.035 278.381M229.523 296.8L245.244 278.381M229.523 296.8H311.353M199.405 244.868H273.847M199.405 244.868L214.629 229.581M199.405 244.868H124.963M199.405 244.868L183.237 261.105M273.847 244.868L286.896 229.581M273.847 244.868L259.989 261.105M273.847 244.868H348.289M214.629 229.581H286.896M214.629 229.581H142.361M214.629 229.581L228.987 215.16M286.896 229.581L299.203 215.16M286.896 229.581H359.163M255.39 188.644H321.835M255.39 188.644L267.556 176.427M255.39 188.644H188.946M255.39 188.644L242.553 201.537M321.835 188.644L332.263 176.427M321.835 188.644L310.831 201.537M321.835 188.644H388.279M267.556 176.427H332.263M267.556 176.427H202.85M267.556 176.427L279.102 164.832M332.263 176.427L342.159 164.832M332.263 176.427H396.969M300.513 143.33H360.511M300.513 143.33L310.458 133.342M300.513 143.33H240.515M300.513 143.33L290.074 153.814M360.511 143.33L369.036 133.342M360.511 143.33L351.563 153.814M360.511 143.33H420.509M310.458 133.342H369.036M310.458 133.342H251.88M310.458 133.342L319.943 123.817M369.036 133.342L377.166 123.817M369.036 133.342H427.613M337.655 106.03H392.347M337.655 106.03L345.936 97.7138M337.655 106.03H282.963M337.655 106.03L328.999 114.723M392.347 106.03L399.445 97.7138M392.347 106.03L384.928 114.723M392.347 106.03H447.039M345.936 97.7138H399.445M345.936 97.7138H292.426M345.936 97.7138L353.867 89.7495M399.445 97.7138L406.243 89.7495M399.445 97.7138H452.955M368.761 74.7915H419.01M368.761 74.7915L375.763 67.7593M368.761 74.7915H318.513M368.761 74.7915L361.468 82.1153M419.01 74.7915L418.242 75.6904L412.758 82.1153M419.01 74.7915L425.011 67.7593M419.01 74.7915H469.258M375.763 67.7593H425.011M375.763 67.7593H326.515M375.763 67.7593L382.493 61.0015M425.011 67.7593L430.779 61.0015M425.011 67.7593H474.26M395.192 48.2477H441.665M395.192 48.2477L401.191 42.2238M395.192 48.2477H348.72M395.192 48.2477L388.964 54.5021M441.665 48.2477L446.806 42.2238M441.665 48.2477L439.687 50.5657L438.352 52.1294L436.327 54.5021M441.665 48.2477H488.137M401.191 42.2238H446.806M401.191 42.2238H355.575M401.191 42.2238L406.972 36.4178M446.806 42.2238L448.686 40.0214L449.925 38.5699L451.762 36.4178M446.806 42.2238H492.422M417.929 25.4142H461.153M417.929 25.4142L421.843 21.484L423.125 20.1958M417.929 25.4142H374.704M417.929 25.4142L413.231 30.1319L412.548 30.8182M461.153 25.4142L464.508 21.484L465.058 20.8381L465.607 20.1958M461.153 25.4142L458.867 28.092L456.541 30.8182M461.153 25.4142H504.378M423.125 20.1958H465.607M423.125 20.1958L428.146 15.1542M423.125 20.1958H380.643M465.607 20.1958H508.089M465.607 20.1958L469.91 15.1542M370.946 540.654H487.464M370.946 540.654L386.669 503.809M370.946 540.654H254.428M370.946 540.654L353.668 581.142M487.464 540.654L497.947 503.809M487.464 540.654L475.945 581.142M487.464 540.654H603.982M386.669 503.809H497.947M386.669 503.809H275.393M386.669 503.809L401.04 470.136M497.947 503.809L507.527 470.136M497.947 503.809H609.223M426.363 410.797H524.409M426.363 410.797L437.576 384.521M426.363 410.797H328.317M426.363 410.797L414.224 439.242M524.409 410.797L531.884 384.521M524.409 410.797L516.316 439.242M524.409 410.797H622.455M437.576 384.521H531.884M437.576 384.521H343.269M437.576 384.521L447.966 360.175M531.884 384.521L538.811 360.175M531.884 384.521H626.192M466.613 316.48H551.242M466.613 316.48L475.012 296.8M466.613 316.48H381.985M466.613 316.48L457.62 337.553M551.242 316.48L556.841 296.8M551.242 316.48L545.247 337.553M551.242 316.48H635.871M475.012 296.8H556.841M475.012 296.8H393.182M475.012 296.8L482.872 278.381M556.841 296.8L562.081 278.381M556.841 296.8H638.671M497.174 244.868H571.615M497.174 244.868L503.698 229.581M497.174 244.868H422.732M497.174 244.868L490.245 261.105M571.615 244.868L575.965 229.581M571.615 244.868L566.996 261.105M571.615 244.868H646.058M503.698 229.581H575.965M503.698 229.581H431.431M503.698 229.581L509.852 215.16M575.965 229.581L580.068 215.16M575.965 229.581H648.233M521.167 188.644H587.612M521.167 188.644L526.381 176.427M521.167 188.644H454.723M521.167 188.644L515.666 201.537M587.612 188.644L591.087 176.427M587.612 188.644L583.944 201.537M587.612 188.644H654.056M526.381 176.427H591.087M526.381 176.427H461.675M526.381 176.427L531.33 164.832M591.087 176.427L594.386 164.832M591.087 176.427H655.794M540.506 143.33H600.503M540.506 143.33L544.767 133.342M540.506 143.33H480.508M540.506 143.33L536.032 153.814M600.503 143.33L603.346 133.342M600.503 143.33L597.521 153.814M600.503 143.33H660.502M544.767 133.342H603.346M544.767 133.342H486.19M544.767 133.342L546.315 129.718L548.833 123.817M603.346 133.342L606.055 123.817M603.346 133.342H661.923M556.424 106.03H611.116M556.424 106.03L559.973 97.7138M556.424 106.03H501.731M556.424 106.03L553.657 112.513L552.714 114.723M611.116 106.03L612.015 102.868L613.482 97.7138M611.116 106.03L608.642 114.723M611.116 106.03H665.808M559.973 97.7138L560.405 96.6992L563.371 89.7495M559.973 97.7138H613.482M559.973 97.7138H506.463M613.482 97.7138L614.343 94.6871L614.626 93.6886L614.91 92.6964L615.747 89.7495M613.482 97.7138H666.991M569.754 74.7915H620.003M569.754 74.7915L571.27 71.2399L571.645 70.3635L572.017 69.4906L572.387 68.6231L572.756 67.7593M569.754 74.7915H519.506M569.754 74.7915L566.629 82.1153M620.003 74.7915L621.511 69.4906L621.759 68.6231L622.003 67.7593M620.003 74.7915L617.92 82.1153M620.003 74.7915H670.252M572.756 67.7593H622.003M572.756 67.7593H523.508M572.756 67.7593L574.572 63.5044L574.929 62.6656L575.64 61.0015M622.003 67.7593L623.214 63.5044L623.453 62.6656L623.69 61.8313L623.926 61.0015M622.003 67.7593H671.252M581.083 48.2477H627.555M581.083 48.2477L583.654 42.2238M581.083 48.2477H534.609M581.083 48.2477L580.424 49.7889L579.426 52.1294L578.413 54.5021M627.555 48.2477L627.336 49.0165L626.001 53.7073L625.776 54.5021M627.555 48.2477L629.269 42.2238M627.555 48.2477H674.028M583.654 42.2238H629.269M583.654 42.2238H538.038M583.654 42.2238L586.131 36.4178M629.269 42.2238L629.896 40.0214L630.102 39.2939L630.309 38.5699L630.921 36.4178M629.269 42.2238H674.885M590.827 25.4142H634.051M590.827 25.4142L592.504 21.484L593.053 20.1958M590.827 25.4142H547.602M590.827 25.4142L589.971 27.4182L589.684 28.092L589.394 28.7693L588.52 30.8182M634.051 25.4142L634.24 24.7521L634.613 23.4361L634.985 22.1317L635.535 20.1958M634.051 25.4142L633.289 28.092L633.097 28.7693L632.709 30.1319L632.514 30.8182M634.051 25.4142H677.275M593.053 20.1958H635.535M593.053 20.1958L594.94 15.775L595.206 15.1542M593.053 20.1958H550.571M635.535 20.1958L635.718 19.5562L635.899 18.9193L636.08 18.285L636.259 17.6535L636.793 15.775L636.97 15.1542M635.535 20.1958H678.018M837.018 540.654H953.536M837.018 540.654L831.776 503.809M837.018 540.654H720.5M837.018 540.654L842.778 581.142M953.536 540.654L943.054 503.809M953.536 540.654L965.055 581.142M953.536 540.654H1070.05M831.776 503.809H943.054M831.776 503.809H720.5M831.776 503.809L826.987 470.136M943.054 503.809L933.473 470.136M943.054 503.809H1054.33M818.545 410.797H916.591M818.545 410.797L814.808 384.521M818.545 410.797H720.5M818.545 410.797L822.592 439.242M916.591 410.797L909.116 384.521M916.591 410.797L924.684 439.242M916.591 410.797H1014.64M814.808 384.521H909.116M814.808 384.521H720.5M814.808 384.521L811.344 360.175M909.116 384.521L902.189 360.175M909.116 384.521H1003.42M805.129 316.48H889.758M805.129 316.48L802.329 296.8M805.129 316.48H720.5M805.129 316.48L808.127 337.553M889.758 316.48L884.159 296.8M889.758 316.48L895.753 337.553M889.758 316.48H974.387M802.329 296.8H884.159M802.329 296.8H720.5M802.329 296.8L799.709 278.381M884.159 296.8L878.919 278.381M884.159 296.8H965.988M794.942 244.868H869.385M794.942 244.868L792.767 229.581M794.942 244.868H720.5M794.942 244.868L797.252 261.105M869.385 244.868L865.035 229.581M869.385 244.868L874.004 261.105M869.385 244.868H943.826M792.767 229.581H865.035M792.767 229.581H720.5M792.767 229.581L790.716 215.16M865.035 229.581L860.932 215.16M865.035 229.581H937.302M786.944 188.644H853.388M786.944 188.644L785.206 176.427M786.944 188.644H720.5M786.944 188.644L788.778 201.537M853.388 188.644L849.913 176.427M853.388 188.644L857.056 201.537M853.388 188.644H919.833M785.206 176.427H849.913M785.206 176.427H720.5M785.206 176.427L783.556 164.832M849.913 176.427L846.614 164.832M849.913 176.427H914.619M780.498 143.33H840.497M780.498 143.33L779.077 133.342M780.498 143.33H720.5M780.498 143.33L781.99 153.814M840.497 143.33L837.654 133.342M840.497 143.33L843.479 153.814M840.497 143.33H900.494M779.077 133.342H837.654M779.077 133.342H720.5M779.077 133.342L777.722 123.817M837.654 133.342L834.945 123.817M837.654 133.342H896.233M775.192 106.03H829.885M775.192 106.03L774.009 97.7138M775.192 106.03H720.5M775.192 106.03L776.429 114.723M829.885 106.03L827.808 98.7338L827.518 97.7138M829.885 106.03L832.358 114.723M829.885 106.03H884.576M774.009 97.7138L773.865 96.6992L772.876 89.7495M774.009 97.7138H827.518M774.009 97.7138H720.5M827.518 97.7138L826.657 94.6871L826.374 93.6886L826.09 92.6964L825.253 89.7495M827.518 97.7138H881.027M770.748 74.7915H820.997M770.748 74.7915L769.748 67.7593M770.748 74.7915H720.5M770.748 74.7915L771.134 77.5025L771.264 78.4157L771.394 79.3334L771.657 81.1832L771.791 82.1153M820.997 74.7915L819.489 69.4906L818.996 67.7593M820.997 74.7915L823.08 82.1153M820.997 74.7915H871.245M769.748 67.7593H818.996M769.748 67.7593H720.5M769.748 67.7593L768.787 61.0015M818.996 67.7593L817.786 63.5044L817.547 62.6656L817.31 61.8313L817.073 61.0015M818.996 67.7593H868.244M766.972 48.2477H813.445M766.972 48.2477L766.116 42.2238M766.972 48.2477H720.5M766.972 48.2477L767.862 54.5021M813.445 48.2477L813.664 49.0165L814.999 53.7073L815.224 54.5021M813.445 48.2477L811.731 42.2238M813.445 48.2477H859.917M766.116 42.2238H811.731M766.116 42.2238H720.5M766.116 42.2238L765.29 36.4178M811.731 42.2238L811.104 40.0214L810.898 39.2939L810.691 38.5699L810.079 36.4178M811.731 42.2238H857.346M763.725 25.4142H806.949M763.725 25.4142L762.982 20.1958M763.725 25.4142H720.5M763.725 25.4142L764.493 30.8182M806.949 25.4142L806.76 24.7521L806.386 23.4361L806.2 22.7821L805.83 21.484L805.648 20.8381L805.464 20.1958M806.949 25.4142L807.711 28.092L807.903 28.7693L808.291 30.1319L808.486 30.8182M806.949 25.4142H850.173M762.982 20.1958L762.892 19.5562L762.8 18.9193L762.711 18.285L762.265 15.1542M762.982 20.1958H805.464M762.982 20.1958H720.5M805.464 20.1958H847.947M805.464 20.1958L805.101 18.9193L804.92 18.285L804.741 17.6535L804.207 15.775L804.03 15.1542M1303.09 540.654H1419.61M1303.09 540.654L1276.88 503.809M1303.09 540.654H1186.57M1303.09 540.654L1331.89 581.142M1419.61 540.654L1388.16 503.809M1419.61 540.654L1454.16 581.142M1419.61 540.654H1536.13M1276.88 503.809H1388.16M1276.88 503.809H1165.61M1276.88 503.809L1252.93 470.136M1388.16 503.809L1359.42 470.136M1388.16 503.809H1499.44M1210.73 410.797H1308.77M1210.73 410.797L1192.04 384.521M1210.73 410.797H1112.68M1210.73 410.797L1230.96 439.242M1308.77 410.797L1286.35 384.521M1308.77 410.797L1333.05 439.242M1308.77 410.797H1406.82M1192.04 384.521H1286.35M1192.04 384.521H1097.73M1192.04 384.521L1174.72 360.175M1286.35 384.521L1265.57 360.175M1286.35 384.521H1380.66M1143.64 316.48H1228.27M1143.64 316.48L1129.65 296.8M1143.64 316.48H1059.02M1143.64 316.48L1158.63 337.553M1228.27 316.48L1211.48 296.8M1228.27 316.48L1246.26 337.553M1228.27 316.48H1312.9M1129.65 296.8H1211.48M1129.65 296.8H1047.82M1129.65 296.8L1116.55 278.381M1211.48 296.8L1195.76 278.381M1211.48 296.8H1293.31M1092.71 244.868H1167.15M1092.71 244.868L1081.84 229.581M1092.71 244.868H1018.27M1092.71 244.868L1104.26 261.105M1167.15 244.868L1154.1 229.581M1167.15 244.868L1181.01 261.105M1167.15 244.868H1241.6M1081.84 229.581H1154.1M1081.84 229.581H1009.57M1081.84 229.581L1071.58 215.16M1154.1 229.581L1141.8 215.16M1154.1 229.581H1226.37M1052.72 188.644H1119.16M1052.72 188.644L1044.03 176.427M1052.72 188.644H986.277M1052.72 188.644L1061.89 201.537M1119.16 188.644L1108.74 176.427M1119.16 188.644L1130.17 201.537M1119.16 188.644H1185.61M1044.03 176.427H1108.74M1044.03 176.427H979.325M1044.03 176.427L1035.78 164.832M1108.74 176.427L1098.84 164.832M1108.74 176.427H1173.44M1020.49 143.33H1080.49M1020.49 143.33L1013.39 133.342M1020.49 143.33H960.492M1020.49 143.33L1027.95 153.814M1080.49 143.33L1071.96 133.342M1080.49 143.33L1089.44 153.814M1080.49 143.33H1140.49M1013.39 133.342H1071.96M1013.39 133.342H954.81M1013.39 133.342L1006.61 123.817M1071.96 133.342L1063.83 123.817M1071.96 133.342H1130.54M993.961 106.03L994.718 107.096L995.481 108.167L1000.14 114.723M993.961 106.03H1048.65M993.961 106.03L988.046 97.7138M993.961 106.03H939.269M1048.65 106.03L1041.56 97.7138M1048.65 106.03L1056.07 114.723M1048.65 106.03H1103.35M988.046 97.7138H1041.56M988.046 97.7138H934.537M988.046 97.7138L982.381 89.7495M1041.56 97.7138L1034.76 89.7495M1041.56 97.7138H1095.06M971.742 74.7915H1021.99M971.742 74.7915L966.74 67.7593M971.742 74.7915H921.494M971.742 74.7915L976.951 82.1153M1021.99 74.7915L1018.21 70.3635L1015.99 67.7593M1021.99 74.7915L1028.24 82.1153M1021.99 74.7915H1072.24M966.74 67.7593H1015.99M966.74 67.7593H917.492M966.74 67.7593L962.525 61.8313L961.934 61.0015M1015.99 67.7593L1010.22 61.0015M1015.99 67.7593H1065.24M952.863 48.2477H999.335M952.863 48.2477L951.777 46.7199L948.578 42.2238M952.863 48.2477H906.391M952.863 48.2477L953.959 49.7889L956.184 52.9161L957.311 54.5021M999.335 48.2477L994.194 42.2238M999.335 48.2477L1001.31 50.5657L1002.65 52.1294L1004.67 54.5021M999.335 48.2477H1045.81M948.578 42.2238H994.194M948.578 42.2238H902.962M948.578 42.2238L945.467 37.8487L944.448 36.4178M994.194 42.2238L992.314 40.0214L991.075 38.5699L989.238 36.4178M994.194 42.2238H1039.81M936.622 25.4142H979.847M936.622 25.4142L934.287 22.1317L932.911 20.1958M936.622 25.4142H893.398M936.622 25.4142L940.466 30.8182M979.847 25.4142L976.492 21.484L975.942 20.8381L975.393 20.1958M979.847 25.4142L982.133 28.092L984.459 30.8182M979.847 25.4142H1023.07M932.911 20.1958H975.393M932.911 20.1958L931.103 17.6535L930.21 16.3984L929.766 15.775L929.325 15.1542M932.911 20.1958H890.429M975.393 20.1958H1017.88M975.393 20.1958L971.09 15.1542M1569.27 384.521H1474.96M1569.27 384.521L1538.1 360.175M1569.27 384.521H1597.53M1569.27 384.521L1597.53 406.592M1482.16 316.48H1566.79M1482.16 316.48L1456.97 296.8M1482.16 316.48H1397.53M1482.16 316.48L1509.14 337.553M1566.79 316.48L1538.8 296.8M1566.79 316.48L1596.77 337.553M1566.79 316.48H1597.53M1456.97 296.8H1538.8M1456.97 296.8H1375.14M1456.97 296.8L1433.38 278.381M1538.8 296.8L1512.59 278.381M1538.8 296.8H1597.53M1390.48 244.868H1464.92M1390.48 244.868L1370.91 229.581M1390.48 244.868H1316.04M1390.48 244.868L1411.27 261.105M1464.92 244.868L1443.17 229.581M1464.92 244.868L1488.02 261.105M1464.92 244.868H1539.36M1370.91 229.581H1443.17M1370.91 229.581H1298.64M1370.91 229.581L1352.45 215.16M1443.17 229.581L1422.66 215.16M1443.17 229.581H1515.44M1318.5 188.644H1384.94M1318.5 188.644L1302.86 176.427M1318.5 188.644H1252.05M1318.5 188.644L1335 201.537M1384.94 188.644L1367.56 176.427M1384.94 188.644L1403.28 201.537M1384.94 188.644H1451.39M1302.86 176.427H1367.56M1302.86 176.427H1238.15M1302.86 176.427L1288.01 164.832M1367.56 176.427L1351.07 164.832M1367.56 176.427H1432.27M1260.48 143.33H1320.48M1260.48 143.33L1247.7 133.342M1260.48 143.33H1200.49M1260.48 143.33L1273.91 153.814M1320.48 143.33L1306.27 133.342M1320.48 143.33L1335.4 153.814M1320.48 143.33H1380.48M1247.7 133.342H1306.27M1247.7 133.342H1189.12M1247.7 133.342L1235.5 123.817M1306.27 133.342L1292.72 123.817M1306.27 133.342H1364.85M1212.73 106.03H1267.42M1212.73 106.03L1202.08 97.7138M1212.73 106.03H1158.04M1212.73 106.03L1223.86 114.723M1267.42 106.03L1255.59 97.7138M1267.42 106.03L1279.79 114.723M1267.42 106.03H1322.11M1202.08 97.7138H1255.59M1202.08 97.7138H1148.57M1202.08 97.7138L1191.89 89.7495M1255.59 97.7138L1244.26 89.7495M1255.59 97.7138H1309.1M1172.74 74.7915H1222.98M1172.74 74.7915L1163.73 67.7593M1172.74 74.7915H1122.49M1172.74 74.7915L1182.11 82.1153M1222.98 74.7915L1212.98 67.7593M1222.98 74.7915L1233.4 82.1153M1222.98 74.7915H1273.23M1163.73 67.7593H1212.98M1163.73 67.7593H1114.48M1163.73 67.7593L1155.08 61.0015M1212.98 67.7593L1203.37 61.0015M1212.98 67.7593H1262.23M1138.75 48.2477H1185.23M1138.75 48.2477L1131.04 42.2238M1138.75 48.2477H1092.28M1138.75 48.2477L1140.73 49.7889L1141.72 50.5657L1146.76 54.5021M1185.23 48.2477L1176.66 42.2238M1185.23 48.2477L1194.12 54.5021M1185.23 48.2477H1231.7M1131.04 42.2238H1176.66M1131.04 42.2238H1085.42M1131.04 42.2238L1123.61 36.4178M1176.66 42.2238L1168.4 36.4178M1176.66 42.2238H1222.27M1109.52 25.4142H1152.74M1109.52 25.4142L1102.84 20.1958M1109.52 25.4142H1066.3M1109.52 25.4142L1116.44 30.8182M1152.74 25.4142L1147.15 21.484L1146.24 20.8381L1145.32 20.1958M1152.74 25.4142L1160.43 30.8182M1152.74 25.4142H1195.97M1102.84 20.1958H1145.32M1102.84 20.1958L1097.18 15.775L1096.38 15.1542M1102.84 20.1958H1060.36M1145.32 20.1958H1187.8M1145.32 20.1958L1138.15 15.1542M1584.27 188.644L1561.68 176.427M1584.27 188.644H1517.83M1584.27 188.644L1597.53 195.811M1584.27 188.644H1597.53M1561.68 176.427H1496.97M1561.68 176.427L1540.24 164.832M1561.68 176.427H1597.53M1500.48 143.33H1560.47M1500.48 143.33L1482.01 133.342M1500.48 143.33H1440.48M1500.48 143.33L1519.86 153.814M1560.47 143.33L1540.58 133.342M1560.47 143.33L1581.35 153.814M1560.47 143.33H1597.53M1482.01 133.342H1540.58M1482.01 133.342H1423.43M1482.01 133.342L1464.39 123.817M1540.58 133.342L1521.61 123.817M1540.58 133.342H1597.53M1431.5 106.03H1486.19M1431.5 106.03L1416.12 97.7138M1431.5 106.03H1376.81M1431.5 106.03L1447.57 114.723M1486.19 106.03L1469.63 97.7138M1486.19 106.03L1503.5 114.723M1486.19 106.03H1540.88M1416.12 97.7138H1469.63M1416.12 97.7138H1362.61M1416.12 97.7138L1401.39 89.7495M1469.63 97.7138L1453.77 89.7495M1469.63 97.7138H1523.14M1373.73 74.7915H1423.98M1373.73 74.7915L1360.72 67.7593M1373.73 74.7915H1323.48M1373.73 74.7915L1387.27 82.1153M1423.98 74.7915L1409.97 67.7593M1423.98 74.7915L1438.56 82.1153M1423.98 74.7915H1474.23M1360.72 67.7593H1409.97M1360.72 67.7593H1311.48M1360.72 67.7593L1348.23 61.0015M1409.97 67.7593L1396.51 61.0015M1409.97 67.7593H1459.22M1324.64 48.2477H1371.12M1324.64 48.2477L1313.5 42.2238M1324.64 48.2477H1278.17M1324.64 48.2477L1336.21 54.5021M1371.12 48.2477L1359.12 42.2238M1371.12 48.2477L1383.57 54.5021M1371.12 48.2477H1417.59M1313.5 42.2238H1359.12M1313.5 42.2238H1267.89M1313.5 42.2238L1302.77 36.4178M1359.12 42.2238L1347.56 36.4178M1359.12 42.2238H1404.73M1282.42 25.4142H1325.64M1282.42 25.4142L1272.77 20.1958M1282.42 25.4142H1239.19M1282.42 25.4142L1292.41 30.8182M1325.64 25.4142L1315.25 20.1958M1325.64 25.4142L1336.4 30.8182M1325.64 25.4142H1368.87M1272.77 20.1958H1315.25M1272.77 20.1958L1263.44 15.1542M1272.77 20.1958H1230.29M1315.25 20.1958H1357.73M1315.25 20.1958L1305.21 15.1542M1574.72 74.7915L1557.72 67.7593M1574.72 74.7915H1524.47M1574.72 74.7915L1592.43 82.1153M1574.72 74.7915H1597.53M1557.72 67.7593H1508.47M1557.72 67.7593L1541.38 61.0015M1557.72 67.7593H1597.53M1510.53 48.2477H1557.01M1510.53 48.2477L1495.97 42.2238M1510.53 48.2477H1464.06M1510.53 48.2477L1525.66 54.5021M1557.01 48.2477L1541.58 42.2238M1557.01 48.2477L1573.02 54.5021M1557.01 48.2477H1597.53M1495.97 42.2238H1541.58M1495.97 42.2238H1450.35M1495.97 42.2238L1481.92 36.4178M1541.58 42.2238L1526.71 36.4178M1541.58 42.2238H1587.2M1455.32 25.4142H1498.54M1455.32 25.4142L1442.7 20.1958M1455.32 25.4142H1412.09M1455.32 25.4142L1468.38 30.8182M1498.54 25.4142L1485.18 20.1958M1498.54 25.4142L1512.38 30.8182M1498.54 25.4142H1541.77M1442.7 20.1958H1485.18M1442.7 20.1958L1430.5 15.1542M1442.7 20.1958H1400.21M1485.18 20.1958H1527.66M1485.18 20.1958L1472.27 15.1542M1512.38 30.8182L1526.71 36.4178M1512.38 30.8182H1556.37M1512.38 30.8182H1468.38M1541.77 25.4142L1527.66 20.1958M1541.77 25.4142L1556.37 30.8182M1541.77 25.4142H1584.99M1527.66 20.1958H1570.14M1527.66 20.1958L1514.03 15.1542M1472.27 15.1542H1430.5M1472.27 15.1542H1514.03M1472.27 15.1542L1459.79 10.2794M1556.37 30.8182L1571.5 36.4178M1556.37 30.8182H1597.53M1584.99 25.4142L1570.14 20.1958M1584.99 25.4142L1597.53 29.8211M1584.99 25.4142H1597.53M1570.14 20.1958L1555.8 15.1542M1570.14 20.1958H1597.53M1514.03 15.1542H1555.8M1514.03 15.1542L1500.86 10.2794M1555.8 15.1542L1541.93 10.2794M1555.8 15.1542H1597.53M1526.71 36.4178H1571.5M1526.71 36.4178H1481.92M1587.2 42.2238L1571.5 36.4178M1587.2 42.2238L1597.53 46.0454M1587.2 42.2238H1597.53M1571.5 36.4178H1597.53M1481.92 36.4178H1437.13M1481.92 36.4178L1468.38 30.8182M1468.38 30.8182H1424.39M1573.02 54.5021L1589.66 61.0015M1573.02 54.5021H1525.66M1573.02 54.5021H1597.53M1597.67 48.2477H1597.53M1589.66 61.0015H1541.38M1589.66 61.0015L1597.53 64.0731M1589.66 61.0015H1597.53M1541.38 61.0015H1493.09M1541.38 61.0015L1525.66 54.5021M1525.66 54.5021H1478.3M1336.4 30.8182L1347.56 36.4178M1336.4 30.8182H1380.4M1336.4 30.8182H1292.41M1368.87 25.4142L1357.73 20.1958M1368.87 25.4142L1380.4 30.8182M1368.87 25.4142H1412.09M1357.73 20.1958H1400.21M1357.73 20.1958L1346.97 15.1542M1305.21 15.1542H1346.97M1305.21 15.1542L1295.5 10.2794M1305.21 15.1542H1263.44M1380.4 30.8182L1392.35 36.4178M1380.4 30.8182H1424.39M1412.09 25.4142L1400.21 20.1958M1412.09 25.4142L1424.39 30.8182M1400.21 20.1958L1388.74 15.1542M1346.97 15.1542H1388.74M1346.97 15.1542L1336.57 10.2794M1424.39 30.8182L1437.13 36.4178M1430.5 15.1542H1388.74M1430.5 15.1542L1418.72 10.2794M1388.74 15.1542L1377.64 10.2794M1347.56 36.4178H1392.35M1347.56 36.4178H1302.77M1404.73 42.2238L1392.35 36.4178M1404.73 42.2238L1417.59 48.2477M1404.73 42.2238H1450.35M1392.35 36.4178H1437.13M1302.77 36.4178H1257.98M1302.77 36.4178L1292.41 30.8182M1437.13 36.4178L1450.35 42.2238M1292.41 30.8182H1248.42M1417.59 48.2477L1430.93 54.5021M1417.59 48.2477H1464.06M1450.35 42.2238L1464.06 48.2477M1464.06 48.2477L1478.3 54.5021M1383.57 54.5021L1396.51 61.0015M1383.57 54.5021H1430.93M1383.57 54.5021H1336.21M1430.93 54.5021L1444.8 61.0015M1430.93 54.5021H1478.3M1478.3 54.5021L1493.09 61.0015M1396.51 61.0015H1444.8M1396.51 61.0015H1348.23M1459.22 67.7593L1444.8 61.0015M1459.22 67.7593L1474.23 74.7915M1459.22 67.7593H1508.47M1444.8 61.0015H1493.09M1348.23 61.0015H1299.94M1348.23 61.0015L1336.21 54.5021M1493.09 61.0015L1508.47 67.7593M1336.21 54.5021H1288.85M1474.23 74.7915L1489.85 82.1153M1474.23 74.7915H1524.47M1508.47 67.7593L1524.47 74.7915M1524.47 74.7915L1541.14 82.1153M1438.56 82.1153L1453.77 89.7495M1438.56 82.1153H1489.85M1438.56 82.1153H1387.27M1489.85 82.1153L1506.14 89.7495M1489.85 82.1153H1541.14M1541.14 82.1153L1558.52 89.7495M1541.14 82.1153H1592.43M1592.43 82.1153H1597.53M1592.43 82.1153L1597.53 84.221M1453.77 89.7495H1506.14M1453.77 89.7495H1401.39M1523.14 97.7138L1506.14 89.7495M1523.14 97.7138L1540.88 106.03M1523.14 97.7138H1576.65M1506.14 89.7495H1558.52M1401.39 89.7495H1349.01M1401.39 89.7495L1387.27 82.1153M1558.52 89.7495L1576.65 97.7138M1558.52 89.7495H1597.53M1387.27 82.1153H1335.98M1540.88 106.03L1559.43 114.723M1540.88 106.03H1595.57M1576.65 97.7138L1595.57 106.03M1576.65 97.7138H1597.53M1597.8 89.7495H1597.53M1595.57 106.03L1597.53 106.888M1595.57 106.03H1597.53M1503.5 114.723L1521.61 123.817M1503.5 114.723H1559.43M1503.5 114.723H1447.57M1559.43 114.723L1578.84 123.817M1559.43 114.723H1597.53M1598 107.096L1597.53 106.888M1521.61 123.817H1578.84M1521.61 123.817H1464.39M1578.84 123.817H1597.53M1578.84 123.817L1597.53 132.577M1464.39 123.817H1407.17M1464.39 123.817L1447.57 114.723M1447.57 114.723H1391.64M1581.35 153.814H1519.86M1581.35 153.814L1597.53 161.936M1581.35 153.814H1597.53M1597.97 143.33H1597.53M1519.86 153.814H1458.37M1519.86 153.814L1540.24 164.832M1597.71 162.025L1597.53 161.936M1160.43 30.8182L1168.4 36.4178M1160.43 30.8182H1204.42M1160.43 30.8182H1116.44M1195.97 25.4142L1187.8 20.1958M1195.97 25.4142L1204.42 30.8182M1195.97 25.4142H1239.19M1187.8 20.1958H1230.29M1187.8 20.1958L1179.91 15.1542M1138.15 15.1542H1179.91M1138.15 15.1542L1135.52 13.3071L1131.21 10.2794M1138.15 15.1542H1096.38M1204.42 30.8182L1213.19 36.4178M1204.42 30.8182H1248.42M1239.19 25.4142L1230.29 20.1958M1239.19 25.4142L1248.42 30.8182M1230.29 20.1958L1221.68 15.1542M1179.91 15.1542H1221.68M1179.91 15.1542L1172.29 10.2794M1248.42 30.8182L1257.98 36.4178M1263.44 15.1542L1254.43 10.2794M1263.44 15.1542H1221.68M1221.68 15.1542L1220.62 14.5352L1218.53 13.3071L1213.36 10.2794M1168.4 36.4178H1213.19M1168.4 36.4178H1123.61M1222.27 42.2238L1213.19 36.4178M1222.27 42.2238L1231.7 48.2477M1222.27 42.2238H1267.89M1213.19 36.4178H1257.98M1123.61 36.4178H1078.82M1123.61 36.4178L1116.44 30.8182M1257.98 36.4178L1267.89 42.2238M1116.44 30.8182H1072.44M1231.7 48.2477L1241.49 54.5021M1231.7 48.2477H1278.17M1267.89 42.2238L1269.15 42.9638L1278.17 48.2477M1278.17 48.2477L1288.85 54.5021M1194.12 54.5021L1195.26 55.3014L1203.37 61.0015M1194.12 54.5021H1241.49M1194.12 54.5021H1146.76M1241.49 54.5021L1251.65 61.0015M1241.49 54.5021H1288.85M1288.85 54.5021L1299.94 61.0015M1203.37 61.0015H1251.65M1203.37 61.0015H1155.08M1262.23 67.7593L1251.65 61.0015M1262.23 67.7593L1273.23 74.7915M1262.23 67.7593H1311.48M1251.65 61.0015H1299.94M1155.08 61.0015H1106.79M1155.08 61.0015L1146.76 54.5021M1299.94 61.0015L1311.48 67.7593M1146.76 54.5021H1099.4M1273.23 74.7915L1284.69 82.1153M1273.23 74.7915H1323.48M1311.48 67.7593L1323.48 74.7915M1323.48 74.7915L1335.98 82.1153M1233.4 82.1153L1244.26 89.7495M1233.4 82.1153H1284.69M1233.4 82.1153H1182.11M1284.69 82.1153L1296.64 89.7495M1284.69 82.1153H1335.98M1335.98 82.1153L1349.01 89.7495M1244.26 89.7495H1296.64M1244.26 89.7495H1191.89M1309.1 97.7138L1296.64 89.7495M1309.1 97.7138L1322.11 106.03M1309.1 97.7138H1362.61M1296.64 89.7495H1349.01M1191.89 89.7495H1139.51M1191.89 89.7495L1182.11 82.1153M1349.01 89.7495L1362.61 97.7138M1182.11 82.1153H1130.82M1322.11 106.03L1335.72 114.723M1322.11 106.03H1376.81M1362.61 97.7138L1376.81 106.03M1376.81 106.03L1391.64 114.723M1279.79 114.723L1292.72 123.817M1279.79 114.723H1335.72M1279.79 114.723H1223.86M1335.72 114.723L1349.95 123.817M1335.72 114.723H1391.64M1391.64 114.723L1407.17 123.817M1292.72 123.817H1349.95M1292.72 123.817H1235.5M1364.85 133.342L1349.95 123.817M1364.85 133.342L1380.48 143.33M1364.85 133.342H1423.43M1349.95 123.817H1407.17M1235.5 123.817H1178.28M1235.5 123.817L1223.86 114.723M1407.17 123.817L1423.43 133.342M1223.86 114.723H1167.93M1380.48 143.33L1396.88 153.814M1380.48 143.33H1440.48M1423.43 133.342L1440.48 143.33M1440.48 143.33L1458.37 153.814M1335.4 153.814L1351.07 164.832M1335.4 153.814H1396.88M1335.4 153.814H1273.91M1396.88 153.814L1414.13 164.832M1396.88 153.814H1458.37M1458.37 153.814L1477.18 164.832M1351.07 164.832H1414.13M1351.07 164.832H1288.01M1432.27 176.427L1414.13 164.832M1432.27 176.427L1451.39 188.644M1432.27 176.427H1496.97M1414.13 164.832H1477.18M1288.01 164.832H1224.95M1288.01 164.832L1273.91 153.814M1477.18 164.832L1496.97 176.427M1477.18 164.832H1540.24M1273.91 153.814H1212.42M1451.39 188.644L1471.56 201.537M1451.39 188.644H1517.83M1496.97 176.427L1517.83 188.644M1540.24 164.832H1597.53M1517.83 188.644L1539.84 201.537M1403.28 201.537L1422.66 215.16M1403.28 201.537H1471.56M1403.28 201.537H1335M1471.56 201.537L1492.88 215.16M1471.56 201.537H1539.84M1539.84 201.537L1563.09 215.16M1539.84 201.537H1597.53M1422.66 215.16H1492.88M1422.66 215.16H1352.45M1515.44 229.581L1492.88 215.16M1515.44 229.581L1539.36 244.868M1515.44 229.581H1587.71M1492.88 215.16H1563.09M1352.45 215.16H1282.23M1352.45 215.16L1335 201.537M1563.09 215.16L1587.71 229.581M1563.09 215.16H1597.53M1335 201.537H1266.72M1539.36 244.868L1564.77 261.105M1539.36 244.868H1597.53M1587.71 229.581H1597.53M1587.71 229.581L1597.53 235.333M1488.02 261.105L1512.59 278.381M1488.02 261.105H1564.77M1488.02 261.105H1411.27M1564.77 261.105L1591.8 278.381M1564.77 261.105H1597.53M1512.59 278.381H1591.8M1512.59 278.381H1433.38M1591.8 278.381L1597.53 282.04M1591.8 278.381H1597.53M1433.38 278.381H1354.17M1433.38 278.381L1411.27 261.105M1411.27 261.105H1334.51M1596.77 337.553H1509.14M1596.77 337.553H1597.53M1596.77 337.553L1597.53 338.088M1509.14 337.553H1421.51M1509.14 337.553L1538.1 360.175M984.459 30.8182L986.231 32.894L986.827 33.5929L989.238 36.4178M984.459 30.8182H1028.45M984.459 30.8182H940.466M1023.07 25.4142L1019.16 21.484L1017.88 20.1958M1023.07 25.4142L1027.77 30.1319L1028.45 30.8182M1023.07 25.4142H1066.3M1017.88 20.1958H1060.36M1017.88 20.1958L1012.85 15.1542M971.09 15.1542H1012.85M971.09 15.1542L969.513 13.3071L966.929 10.2794M971.09 15.1542H929.325M1028.45 30.8182L1029.83 32.1988L1034.03 36.4178M1028.45 30.8182H1072.44M1066.3 25.4142L1060.36 20.1958M1066.3 25.4142L1072.44 30.8182M1060.36 20.1958L1056.04 16.3984L1054.62 15.1542M1012.85 15.1542H1054.62M1012.85 15.1542L1008 10.2794M1072.44 30.8182L1078.82 36.4178M1096.38 15.1542L1095.59 14.5352L1090.14 10.2794M1096.38 15.1542H1054.62M1054.62 15.1542L1052.52 13.3071L1049.07 10.2794M989.238 36.4178H1034.03M989.238 36.4178H944.448M1039.81 42.2238L1034.03 36.4178M1039.81 42.2238L1045.81 48.2477M1039.81 42.2238H1085.42M1034.03 36.4178H1078.82M944.448 36.4178H899.659M944.448 36.4178L940.466 30.8182M1078.82 36.4178L1085.42 42.2238M940.466 30.8182H896.473M1045.81 48.2477L1049.67 52.1294L1050.46 52.9161L1052.04 54.5021M1045.81 48.2477H1092.28M1085.42 42.2238L1092.28 48.2477M1092.28 48.2477L1099.4 54.5021M1004.67 54.5021L1010.22 61.0015M1004.67 54.5021H1052.04M1004.67 54.5021H957.311M1052.04 54.5021L1058.51 61.0015M1052.04 54.5021H1099.4M1099.4 54.5021L1106.79 61.0015M1010.22 61.0015H1058.51M1010.22 61.0015H961.934M1065.24 67.7593L1061 63.5044L1060.17 62.6656L1058.51 61.0015M1065.24 67.7593L1072.24 74.7915M1065.24 67.7593H1114.48M1058.51 61.0015H1106.79M961.934 61.0015H913.647M961.934 61.0015L957.311 54.5021M1106.79 61.0015L1114.48 67.7593M957.311 54.5021H909.949M1072.24 74.7915L1079.53 82.1153M1072.24 74.7915H1122.49M1114.48 67.7593L1122.49 74.7915M1122.49 74.7915L1130.82 82.1153M1028.24 82.1153L1031.47 85.892L1032.28 86.8492L1034.76 89.7495M1028.24 82.1153H1079.53M1028.24 82.1153H976.951M1079.53 82.1153L1087.13 89.7495M1079.53 82.1153H1130.82M1130.82 82.1153L1139.51 89.7495M1034.76 89.7495H1087.13M1034.76 89.7495H982.381M1095.06 97.7138L1087.13 89.7495M1095.06 97.7138L1103.35 106.03M1095.06 97.7138H1148.57M1087.13 89.7495H1139.51M982.381 89.7495H930.005M982.381 89.7495L981.002 87.8109L976.951 82.1153M1139.51 89.7495L1148.57 97.7138M976.951 82.1153H925.661M1103.35 106.03L1112 114.723M1103.35 106.03H1158.04M1148.57 97.7138L1158.04 106.03M1158.04 106.03L1167.93 114.723M1056.07 114.723L1063.83 123.817M1056.07 114.723H1112M1056.07 114.723H1000.14M1112 114.723L1121.06 123.817M1112 114.723H1167.93M1167.93 114.723L1178.28 123.817M1063.83 123.817H1121.06M1063.83 123.817H1006.61M1130.54 133.342L1121.06 123.817M1130.54 133.342L1140.49 143.33M1130.54 133.342H1189.12M1121.06 123.817H1178.28M1006.61 123.817H949.39M1006.61 123.817L1000.14 114.723M1178.28 123.817L1189.12 133.342M1000.14 114.723H944.215M1140.49 143.33L1150.93 153.814M1140.49 143.33H1200.49M1189.12 133.342L1200.49 143.33M1200.49 143.33L1212.42 153.814M1089.44 153.814L1098.84 164.832M1089.44 153.814H1150.93M1089.44 153.814H1027.95M1150.93 153.814L1161.9 164.832M1150.93 153.814H1212.42M1212.42 153.814L1224.95 164.832M1098.84 164.832H1161.9M1098.84 164.832H1035.78M1173.44 176.427L1161.9 164.832M1173.44 176.427L1185.61 188.644M1173.44 176.427H1238.15M1161.9 164.832H1224.95M1035.78 164.832H972.728M1035.78 164.832L1027.95 153.814M1224.95 164.832L1238.15 176.427M1027.95 153.814H966.458M1185.61 188.644L1198.45 201.537M1185.61 188.644H1252.05M1238.15 176.427L1252.05 188.644M1252.05 188.644L1266.72 201.537M1130.17 201.537L1141.8 215.16M1130.17 201.537H1198.45M1130.17 201.537H1061.89M1198.45 201.537L1212.01 215.16M1198.45 201.537H1266.72M1266.72 201.537L1282.23 215.16M1141.8 215.16H1212.01M1141.8 215.16H1071.58M1226.37 229.581L1212.01 215.16M1226.37 229.581L1241.6 244.868M1226.37 229.581H1298.64M1212.01 215.16H1282.23M1071.58 215.16H1001.36M1071.58 215.16L1061.89 201.537M1282.23 215.16L1298.64 229.581M1061.89 201.537H993.613M1241.6 244.868L1257.76 261.105M1241.6 244.868H1316.04M1298.64 229.581L1316.04 244.868M1316.04 244.868L1334.51 261.105M1181.01 261.105L1195.76 278.381M1181.01 261.105H1257.76M1181.01 261.105H1104.26M1257.76 261.105L1274.97 278.381M1257.76 261.105H1334.51M1334.51 261.105L1354.17 278.381M1195.76 278.381H1274.97M1195.76 278.381H1116.55M1293.31 296.8L1274.97 278.381M1293.31 296.8L1312.9 316.48M1293.31 296.8H1375.14M1274.97 278.381H1354.17M1116.55 278.381H1037.34M1116.55 278.381L1104.26 261.105M1354.17 278.381L1375.14 296.8M1104.26 261.105H1027.51M1312.9 316.48L1333.89 337.553M1312.9 316.48H1397.53M1375.14 296.8L1397.53 316.48M1397.53 316.48L1421.51 337.553M1246.26 337.553L1265.57 360.175M1246.26 337.553H1333.89M1246.26 337.553H1158.63M1333.89 337.553L1356.41 360.175M1333.89 337.553H1421.51M1421.51 337.553L1447.26 360.175M1265.57 360.175H1356.41M1265.57 360.175H1174.72M1380.66 384.521L1356.41 360.175M1380.66 384.521L1406.82 410.797M1380.66 384.521H1474.96M1356.41 360.175H1447.26M1174.72 360.175H1083.88M1174.72 360.175L1158.63 337.553M1447.26 360.175L1474.96 384.521M1447.26 360.175H1538.1M1158.63 337.553H1071.01M1406.82 410.797L1435.14 439.242M1406.82 410.797H1504.87M1474.96 384.521L1504.87 410.797M1538.1 360.175H1597.53M1504.87 410.797L1537.24 439.242M1504.87 410.797H1597.53M1333.05 439.242L1359.42 470.136M1333.05 439.242H1435.14M1333.05 439.242H1230.96M1435.14 439.242L1465.91 470.136M1435.14 439.242H1537.24M1537.24 439.242L1572.39 470.136M1537.24 439.242H1597.53M1359.42 470.136H1465.91M1359.42 470.136H1252.93M1499.44 503.809L1465.91 470.136M1499.44 503.809L1536.13 540.654M1499.44 503.809H1597.53M1465.91 470.136H1572.39M1252.93 470.136H1146.45M1252.93 470.136L1230.96 439.242M1572.39 470.136H1597.53M1572.39 470.136L1597.53 492.222M1230.96 439.242H1128.87M1536.13 540.654L1576.44 581.142M1536.13 540.654H1597.53M1454.16 581.142L1492.32 625.841M1454.16 581.142H1576.44M1454.16 581.142H1331.89M1576.44 581.142L1597.53 602.318M1576.44 581.142H1597.53M1492.32 625.841H1363.68M1492.32 625.841L1597.53 625.84M1363.68 625.841H1235.04M1363.68 625.841L1331.89 581.142M1331.89 581.142H1209.61M808.486 30.8182L808.682 31.5072L808.879 32.1988L809.077 32.894L809.275 33.5929L809.877 35.7064L810.079 36.4178M808.486 30.8182H852.48M808.486 30.8182H764.493M850.173 25.4142L848.496 21.484L847.947 20.1958M850.173 25.4142L851.606 28.7693L852.48 30.8182M850.173 25.4142H893.398M847.947 20.1958H890.429M847.947 20.1958L846.326 16.3984L845.794 15.1542M804.03 15.1542L803.854 14.5352L803.158 12.088L802.643 10.2794M804.03 15.1542H845.794M804.03 15.1542H762.265M852.48 30.8182L852.773 31.5072L853.069 32.1988L853.365 32.894L853.664 33.5929L854.869 36.4178M852.48 30.8182H896.473M893.398 25.4142L891.161 21.484L890.429 20.1958M893.398 25.4142L896.473 30.8182M890.429 20.1958L888.982 17.6535L887.913 15.775L887.56 15.1542M845.794 15.1542L845.531 14.5352L845.007 13.3071L844.486 12.088L844.228 11.4824L843.714 10.2794M845.794 15.1542H887.56M896.473 30.8182L898.852 34.9986L899.659 36.4178M929.325 15.1542L926.714 11.4824L925.858 10.2794M929.325 15.1542H887.56M887.56 15.1542L885.128 10.8796L884.786 10.2794M810.079 36.4178H854.869M810.079 36.4178H765.29M857.346 42.2238L854.869 36.4178M857.346 42.2238L859.917 48.2477M857.346 42.2238H902.962M854.869 36.4178H899.659M765.29 36.4178H720.5M765.29 36.4178L764.493 30.8182M899.659 36.4178L902.962 42.2238M764.493 30.8182H720.5M859.917 48.2477L860.576 49.7889L861.574 52.1294L862.587 54.5021M859.917 48.2477H906.391M902.962 42.2238L903.384 42.9638L906.391 48.2477M906.391 48.2477L906.827 49.0165L907.268 49.7889L907.709 50.5657L909.949 54.5021M815.224 54.5021L817.073 61.0015M815.224 54.5021H862.587M815.224 54.5021H767.862M862.587 54.5021L865.36 61.0015M862.587 54.5021H909.949M909.949 54.5021L912.709 59.3527L913.177 60.1753L913.647 61.0015M817.073 61.0015H865.36M817.073 61.0015H768.787M868.244 67.7593L868.613 68.6231L868.984 69.4906L869.355 70.3635L871.245 74.7915M868.244 67.7593L866.788 64.3467L866.428 63.5044L866.071 62.6656L865.36 61.0015M868.244 67.7593H917.492M865.36 61.0015H913.647M768.787 61.0015H720.5M768.787 61.0015L767.862 54.5021M913.647 61.0015L917.492 67.7593M767.862 54.5021H720.5M871.245 74.7915L873.973 81.1832L874.371 82.1153M871.245 74.7915H921.494M917.492 67.7593L918.478 69.4906L921.494 74.7915M921.494 74.7915L923.037 77.5025L925.661 82.1153M823.08 82.1153L824.156 85.892L824.427 86.8492L825.253 89.7495M823.08 82.1153H874.371M823.08 82.1153H771.791M874.371 82.1153L877.629 89.7495M874.371 82.1153H925.661M925.661 82.1153L930.005 89.7495M825.253 89.7495H877.629M825.253 89.7495H772.876M881.027 97.7138L877.629 89.7495M881.027 97.7138L884.576 106.03M881.027 97.7138H934.537M877.629 89.7495H930.005M772.876 89.7495H720.5M772.876 89.7495L772.6 87.8109L772.057 83.9938L771.791 82.1153M930.005 89.7495L934.537 97.7138M771.791 82.1153H720.5M884.576 106.03L887.343 112.513L888.286 114.723M884.576 106.03H939.269M934.537 97.7138L939.269 106.03M939.269 106.03L941.714 110.328L944.215 114.723M832.358 114.723L834.945 123.817M832.358 114.723H888.286M832.358 114.723H776.429M888.286 114.723L892.167 123.817M888.286 114.723H944.215M944.215 114.723L949.39 123.817M834.945 123.817H892.167M834.945 123.817H777.722M896.233 133.342L895.197 130.919L892.167 123.817M896.233 133.342L900.494 143.33M896.233 133.342H954.81M892.167 123.817H949.39M777.722 123.817H720.5M777.722 123.817L776.429 114.723M949.39 123.817L954.81 133.342M776.429 114.723H720.5M900.494 143.33L904.968 153.814M900.494 143.33H960.492M954.81 133.342L960.492 143.33M960.492 143.33L966.458 153.814M843.479 153.814L846.614 164.832M843.479 153.814H904.968M843.479 153.814H781.99M904.968 153.814L909.67 164.832M904.968 153.814H966.458M966.458 153.814L972.728 164.832M846.614 164.832H909.67M846.614 164.832H783.556M914.619 176.427L909.67 164.832M914.619 176.427L919.833 188.644M914.619 176.427H979.325M909.67 164.832H972.728M783.556 164.832H720.5M783.556 164.832L782.181 155.161L781.99 153.814M972.728 164.832L979.325 176.427M781.99 153.814H720.5M919.833 188.644L925.334 201.537M919.833 188.644H986.277M979.325 176.427L984.504 185.529L986.277 188.644M986.277 188.644L993.613 201.537M857.056 201.537L860.932 215.16M857.056 201.537H925.334M857.056 201.537H788.778M925.334 201.537L931.148 215.16M925.334 201.537H993.613M993.613 201.537L1001.36 215.16M860.932 215.16H931.148M860.932 215.16H790.716M937.302 229.581L931.148 215.16M937.302 229.581L943.826 244.868M937.302 229.581H1009.57M931.148 215.16H1001.36M790.716 215.16H720.5M790.716 215.16L788.778 201.537M1001.36 215.16L1009.57 229.581M788.778 201.537H720.5M943.826 244.868L950.755 261.105M943.826 244.868H1018.27M1009.57 229.581L1018.27 244.868M1018.27 244.868L1027.51 261.105M874.004 261.105L878.919 278.381M874.004 261.105H950.755M874.004 261.105H797.252M950.755 261.105L958.128 278.381M950.755 261.105H1027.51M1027.51 261.105L1037.34 278.381M878.919 278.381H958.128M878.919 278.381H799.709M965.988 296.8L958.128 278.381M965.988 296.8L974.387 316.48M965.988 296.8H1047.82M958.128 278.381H1037.34M799.709 278.381H720.5M799.709 278.381L797.252 261.105M1037.34 278.381L1047.82 296.8M797.252 261.105H720.5M974.387 316.48L983.38 337.553M974.387 316.48H1059.02M1047.82 296.8L1059.02 316.48M1059.02 316.48L1071.01 337.553M895.753 337.553L902.189 360.175M895.753 337.553H983.38M895.753 337.553H808.127M983.38 337.553L993.034 360.175M983.38 337.553H1071.01M1071.01 337.553L1083.88 360.175M902.189 360.175H993.034M902.189 360.175H811.344M1003.42 384.521L993.034 360.175M1003.42 384.521L1014.64 410.797M1003.42 384.521H1097.73M993.034 360.175H1083.88M811.344 360.175H720.5M811.344 360.175L808.127 337.553M1083.88 360.175L1097.73 384.521M808.127 337.553H720.5M1014.64 410.797L1026.78 439.242M1014.64 410.797H1112.68M1097.73 384.521L1112.68 410.797M1112.68 410.797L1128.87 439.242M924.684 439.242L933.473 470.136M924.684 439.242H1026.78M924.684 439.242H822.592M1026.78 439.242L1039.96 470.136M1026.78 439.242H1128.87M1128.87 439.242L1146.45 470.136M933.473 470.136H1039.96M933.473 470.136H826.987M1054.33 503.809L1039.96 470.136M1054.33 503.809L1070.05 540.654M1054.33 503.809H1165.61M1039.96 470.136H1146.45M826.987 470.136H720.5M826.987 470.136L822.592 439.242M1146.45 470.136L1165.61 503.809M822.592 439.242H720.5M1070.05 540.654L1087.33 581.142M1070.05 540.654H1186.57M1165.61 503.809L1186.57 540.654M1186.57 540.654L1209.61 581.142M965.055 581.142L977.771 625.841M965.055 581.142H1087.33M965.055 581.142H842.778M1087.33 581.142L1106.41 625.841M1087.33 581.142H1209.61M1209.61 581.142L1235.04 625.841M1106.41 625.841H977.771M1106.41 625.841H1235.04M977.771 625.841H849.136M849.136 625.841H720.5M849.136 625.841L842.778 581.142M842.778 581.142H720.5M632.514 30.8182L632.318 31.5072L632.121 32.1988L631.923 32.894L631.725 33.5929L631.325 34.9986L631.123 35.7064L630.921 36.4178M632.514 30.8182H676.507M632.514 30.8182H588.52M677.275 25.4142L678.018 20.1958M677.275 25.4142L676.507 30.8182M677.275 25.4142H720.5M678.018 20.1958L678.109 19.5562L678.2 18.9193L678.289 18.285L678.735 15.1542M678.018 20.1958H720.5M636.97 15.1542L637.146 14.5352L637.842 12.088L638.357 10.2794M636.97 15.1542H678.735M636.97 15.1542H595.206M676.507 30.8182L676.408 31.5072L676.311 32.1988L676.211 32.894L675.71 36.4178M676.507 30.8182H720.5M720.5 25.4142V20.1958M720.5 25.4142V30.8182M720.5 20.1958V15.1542M678.735 15.1542H720.5M678.735 15.1542L678.997 13.3071L679.085 12.6962L679.429 10.2794M720.5 30.8182V36.4178M762.265 15.1542L762.003 13.3071L761.915 12.6962L761.829 12.088L761.742 11.4824L761.657 10.8796L761.571 10.2794M762.265 15.1542H720.5M720.5 15.1542V10.2794M630.921 36.4178H675.71M630.921 36.4178H586.131M674.885 42.2238L674.779 42.9638L674.674 43.7084L674.028 48.2477M674.885 42.2238L675.71 36.4178M674.885 42.2238H720.5M675.71 36.4178H720.5M586.131 36.4178H541.342M586.131 36.4178L586.736 34.9986L587.037 34.2944L587.336 33.5929L587.635 32.894L587.931 32.1988L588.227 31.5072L588.52 30.8182M720.5 36.4178V42.2238M588.52 30.8182H544.527M674.028 48.2477L673.138 54.5021M674.028 48.2477H720.5M720.5 42.2238V48.2477M720.5 48.2477V54.5021M625.776 54.5021L623.926 61.0015M625.776 54.5021H673.138M625.776 54.5021H578.413M673.138 54.5021L672.213 61.0015M673.138 54.5021H720.5M720.5 54.5021V61.0015M623.926 61.0015H672.213M623.926 61.0015H575.64M671.252 67.7593L672.213 61.0015M671.252 67.7593L670.252 74.7915M671.252 67.7593H720.5M672.213 61.0015H720.5M575.64 61.0015H527.353M575.64 61.0015L578.413 54.5021M720.5 61.0015V67.7593M578.413 54.5021H531.051M670.252 74.7915L669.866 77.5025L669.474 80.2557L669.209 82.1153M670.252 74.7915H720.5M720.5 67.7593V74.7915M720.5 74.7915V82.1153M617.92 82.1153L616.845 85.892L616.573 86.8492L615.747 89.7495M617.92 82.1153H669.209M617.92 82.1153H566.629M669.209 82.1153L668.943 83.9938L668.4 87.8109L668.124 89.7495M669.209 82.1153H720.5M720.5 82.1153V89.7495M615.747 89.7495H668.124M615.747 89.7495H563.371M666.991 97.7138L667.135 96.6992L668.124 89.7495M666.991 97.7138L665.808 106.03M666.991 97.7138H720.5M668.124 89.7495H720.5M563.371 89.7495H510.995M563.371 89.7495L566.629 82.1153M720.5 89.7495V97.7138M566.629 82.1153H515.339M665.808 106.03L664.571 114.723M665.808 106.03H720.5M720.5 97.7138V106.03M720.5 106.03V114.723M608.642 114.723L606.055 123.817M608.642 114.723H664.571M608.642 114.723H552.714M664.571 114.723L663.278 123.817M664.571 114.723H720.5M720.5 114.723V123.817M606.055 123.817H663.278M606.055 123.817H548.833M661.923 133.342L663.278 123.817M661.923 133.342L660.502 143.33M661.923 133.342H720.5M663.278 123.817H720.5M548.833 123.817H491.61M548.833 123.817L552.714 114.723M720.5 123.817V133.342M552.714 114.723H496.785M660.502 143.33L659.01 153.814M660.502 143.33H720.5M720.5 133.342V143.33M720.5 143.33V153.814M597.521 153.814L594.386 164.832M597.521 153.814H659.01M597.521 153.814H536.032M659.01 153.814L657.444 164.832M659.01 153.814H720.5M720.5 153.814V164.832M594.386 164.832H657.444M594.386 164.832H531.33M655.794 176.427L657.444 164.832M655.794 176.427L654.056 188.644M655.794 176.427H720.5M657.444 164.832H720.5M531.33 164.832H468.272M531.33 164.832L536.032 153.814M720.5 164.832V176.427M536.032 153.814H474.542M654.056 188.644L652.222 201.537M654.056 188.644H720.5M720.5 176.427V188.644M720.5 188.644V201.537M583.944 201.537L580.068 215.16M583.944 201.537H652.222M583.944 201.537H515.666M652.222 201.537L650.284 215.16M652.222 201.537H720.5M720.5 201.537V215.16M580.068 215.16H650.284M580.068 215.16H509.852M648.233 229.581L650.284 215.16M648.233 229.581L646.058 244.868M648.233 229.581H720.5M650.284 215.16H720.5M509.852 215.16H439.636M509.852 215.16L515.666 201.537M720.5 215.16V229.581M515.666 201.537H447.387M646.058 244.868L643.748 261.105M646.058 244.868H720.5M720.5 229.581V244.868M720.5 244.868V261.105M566.996 261.105L562.081 278.381M566.996 261.105H643.748M566.996 261.105H490.245M643.748 261.105L641.291 278.381M643.748 261.105H720.5M720.5 261.105V278.381M562.081 278.381H641.291M562.081 278.381H482.872M638.671 296.8L641.291 278.381M638.671 296.8L635.871 316.48M638.671 296.8H720.5M641.291 278.381H720.5M482.872 278.381H403.663M482.872 278.381L490.245 261.105M720.5 278.381V296.8M490.245 261.105H413.493M635.871 316.48L632.873 337.553M635.871 316.48H720.5M720.5 296.8V316.48M720.5 316.48V337.553M545.247 337.553L538.811 360.175M545.247 337.553H632.873M545.247 337.553H457.62M632.873 337.553L629.655 360.175M632.873 337.553H720.5M720.5 337.553V360.175M538.811 360.175H629.655M538.811 360.175H447.966M626.192 384.521L629.655 360.175M626.192 384.521L622.455 410.797M626.192 384.521H720.5M629.655 360.175H720.5M447.966 360.175H357.122M447.966 360.175L457.62 337.553M720.5 360.175V384.521M457.62 337.553H369.993M622.455 410.797L618.408 439.242M622.455 410.797H720.5M720.5 384.521V410.797M720.5 410.797V439.242M516.316 439.242L507.527 470.136M516.316 439.242H618.408M516.316 439.242H414.224M618.408 439.242L614.013 470.136M618.408 439.242H720.5M720.5 439.242V470.136M507.527 470.136H614.013M507.527 470.136H401.04M609.223 503.809L614.013 470.136M609.223 503.809L603.982 540.654M609.223 503.809H720.5M614.013 470.136H720.5M401.04 470.136H294.553M401.04 470.136L414.224 439.242M720.5 470.136V503.809M414.224 439.242H312.132M603.982 540.654L598.222 581.142M603.982 540.654H720.5M720.5 503.809V540.654M720.5 540.654V581.142M475.945 581.142L463.229 625.841M475.945 581.142H598.222M475.945 581.142H353.668M598.222 581.142L591.864 625.841M598.222 581.142H720.5M720.5 581.142V625.841M591.864 625.841H463.229M591.864 625.841H720.5M463.229 625.841H334.592M334.592 625.841H205.956M334.592 625.841L353.668 581.142M353.668 581.142H231.39M456.541 30.8182L454.173 33.5929L451.762 36.4178M456.541 30.8182H500.534M456.541 30.8182H412.548M504.378 25.4142L508.089 20.1958M504.378 25.4142L500.534 30.8182M504.378 25.4142H547.602M508.089 20.1958H550.571M508.089 20.1958L510.79 16.3984L511.675 15.1542M469.91 15.1542H511.675M469.91 15.1542L471.487 13.3071L474.071 10.2794M469.91 15.1542H428.146M500.534 30.8182L496.552 36.4178M500.534 30.8182H544.527M547.602 25.4142L550.571 20.1958M547.602 25.4142L544.527 30.8182M550.571 20.1958L552.018 17.6535L553.087 15.775L553.44 15.1542M511.675 15.1542H553.44M511.675 15.1542L514.286 11.4824L515.142 10.2794M544.527 30.8182L542.148 34.9986L541.342 36.4178M595.206 15.1542L595.469 14.5352L595.993 13.3071L596.772 11.4824L597.286 10.2794M595.206 15.1542H553.44M553.44 15.1542L553.792 14.5352L554.492 13.3071L556.214 10.2794M451.762 36.4178H496.552M451.762 36.4178H406.972M492.422 42.2238L492.947 41.4863L493.469 40.7516L495.533 37.8487L496.552 36.4178M492.422 42.2238L489.223 46.7199L488.137 48.2477M492.422 42.2238H538.038M496.552 36.4178H541.342M406.972 36.4178H362.182M406.972 36.4178L411.172 32.1988L412.548 30.8182M541.342 36.4178L538.038 42.2238M412.548 30.8182H368.554M488.137 48.2477L487.591 49.0165L487.041 49.7889L485.377 52.1294L484.816 52.9161L483.689 54.5021M488.137 48.2477H534.609M538.038 42.2238L537.616 42.9638L534.609 48.2477M534.609 48.2477L534.173 49.0165L533.732 49.7889L533.291 50.5657L531.051 54.5021M436.327 54.5021L430.779 61.0015M436.327 54.5021H483.689M436.327 54.5021H388.964M483.689 54.5021L479.066 61.0015M483.689 54.5021H531.051M531.051 54.5021L527.353 61.0015M430.779 61.0015H479.066M430.779 61.0015H382.493M474.26 67.7593L479.066 61.0015M474.26 67.7593L469.258 74.7915M474.26 67.7593H523.508M479.066 61.0015H527.353M382.493 61.0015H334.206M382.493 61.0015L388.964 54.5021M527.353 61.0015L523.508 67.7593M388.964 54.5021H341.601M469.258 74.7915L464.049 82.1153M469.258 74.7915H519.506M523.508 67.7593L522.522 69.4906L519.506 74.7915M519.506 74.7915L517.963 77.5025L516.396 80.2557L515.339 82.1153M412.758 82.1153L409.534 85.892L406.243 89.7495M412.758 82.1153H464.049M412.758 82.1153H361.468M464.049 82.1153L458.619 89.7495M464.049 82.1153H515.339M515.339 82.1153L510.995 89.7495M406.243 89.7495H458.619M406.243 89.7495H353.867M452.955 97.7138L458.619 89.7495M452.955 97.7138L447.039 106.03M452.955 97.7138H506.463M458.619 89.7495H510.995M353.867 89.7495H301.49M353.867 89.7495L361.468 82.1153M510.995 89.7495L506.463 97.7138M361.468 82.1153H310.178M447.039 106.03L445.519 108.167L440.857 114.723M447.039 106.03H501.731M506.463 97.7138L501.731 106.03M501.731 106.03L501.125 107.096L499.286 110.328L496.785 114.723M384.928 114.723L377.166 123.817M384.928 114.723H440.857M384.928 114.723H328.999M440.857 114.723L434.388 123.817M440.857 114.723H496.785M496.785 114.723L491.61 123.817M377.166 123.817H434.388M377.166 123.817H319.943M427.613 133.342L431.885 127.337L434.388 123.817M427.613 133.342L420.509 143.33M427.613 133.342H486.19M434.388 123.817H491.61M319.943 123.817H262.721M319.943 123.817L328.999 114.723M491.61 123.817L486.19 133.342M328.999 114.723H273.071M420.509 143.33L413.053 153.814M420.509 143.33H480.508M486.19 133.342L480.508 143.33M480.508 143.33L474.542 153.814M351.563 153.814L342.159 164.832M351.563 153.814H413.053M351.563 153.814H290.074M413.053 153.814L405.216 164.832M413.053 153.814H474.542M474.542 153.814L468.272 164.832M342.159 164.832H405.216M342.159 164.832H279.102M396.969 176.427L405.216 164.832M396.969 176.427L388.279 188.644M396.969 176.427H461.675M405.216 164.832H468.272M279.102 164.832H216.046M279.102 164.832L290.074 153.814M468.272 164.832L461.675 176.427M290.074 153.814H228.584M388.279 188.644L379.11 201.537M388.279 188.644H454.723M461.675 176.427L454.723 188.644M454.723 188.644L447.387 201.537M310.831 201.537L299.203 215.16M310.831 201.537H379.11M310.831 201.537H242.553M379.11 201.537L369.419 215.16M379.11 201.537H447.387M447.387 201.537L439.636 215.16M299.203 215.16H369.419M299.203 215.16H228.987M359.163 229.581L369.419 215.16M359.163 229.581L348.289 244.868M359.163 229.581H431.431M369.419 215.16H439.636M228.987 215.16H158.771M228.987 215.16L242.553 201.537M439.636 215.16L431.431 229.581M242.553 201.537H174.275M348.289 244.868L336.741 261.105M348.289 244.868H422.732M431.431 229.581L422.732 244.868M422.732 244.868L413.493 261.105M259.989 261.105L245.244 278.381M259.989 261.105H336.741M259.989 261.105H183.237M336.741 261.105L324.454 278.381M336.741 261.105H413.493M413.493 261.105L403.663 278.381M245.244 278.381H324.454M245.244 278.381H166.035M311.353 296.8L324.454 278.381M311.353 296.8L297.355 316.48M311.353 296.8H393.182M324.454 278.381H403.663M166.035 278.381H86.8256M166.035 278.381L183.237 261.105M403.663 278.381L393.182 296.8M183.237 261.105H106.486M297.355 316.48L282.367 337.553M297.355 316.48H381.985M393.182 296.8L381.985 316.48M381.985 316.48L369.993 337.553M194.74 337.553L175.433 360.175M194.74 337.553H282.367M194.74 337.553H107.113M282.367 337.553L266.277 360.175M282.367 337.553H369.993M369.993 337.553L357.122 360.175M175.433 360.175H266.277M175.433 360.175H84.5882M248.961 384.521L266.277 360.175M248.961 384.521L230.272 410.797M248.961 384.521H343.269M266.277 360.175H357.122M84.5882 360.175H-6.25629M84.5882 360.175L107.113 337.553M357.122 360.175L343.269 384.521M107.113 337.553H19.4863M230.272 410.797L210.04 439.242M230.272 410.797H328.317M343.269 384.521L328.317 410.797M328.317 410.797L312.132 439.242M107.948 439.242L81.5799 470.136M107.948 439.242H210.04M107.948 439.242H5.85585M210.04 439.242L188.067 470.136M210.04 439.242H312.132M312.132 439.242L294.553 470.136M81.5799 470.136H188.067M81.5799 470.136H-24.9068M164.116 503.809L188.067 470.136M164.116 503.809L137.91 540.654M164.116 503.809H275.393M188.067 470.136H294.553M-24.9068 470.136H-131.394M-24.9068 470.136L5.85585 439.242M294.553 470.136L275.393 503.809M5.85585 439.242H-96.2357M137.91 540.654L109.113 581.142M137.91 540.654H254.428M275.393 503.809L254.428 540.654M254.428 540.654L231.39 581.142M-13.1647 581.142L-51.3154 625.841M-13.1647 581.142H109.113M-13.1647 581.142H-135.442M109.113 581.142L77.3208 625.841M109.113 581.142H231.39M231.39 581.142L205.956 625.841M77.3208 625.841H-51.3154M77.3208 625.841H205.956M-51.3154 625.841L-156.528 625.84M-135.442 581.142L-156.528 602.318M-135.442 581.142H-156.528M280.568 30.8182L272.603 36.4178M280.568 30.8182H324.561M280.568 30.8182H236.575M331.48 25.4142L338.161 20.1958M331.48 25.4142L324.561 30.8182M331.48 25.4142H374.704M338.161 20.1958H380.643M338.161 20.1958L344.616 15.1542M302.85 15.1542H344.616M302.85 15.1542L305.479 13.3071L309.785 10.2794M302.85 15.1542H261.086M324.561 30.8182L317.393 36.4178M324.561 30.8182H368.554M374.704 25.4142L380.643 20.1958M374.704 25.4142L368.554 30.8182M380.643 20.1958L384.965 16.3984L386.381 15.1542M344.616 15.1542L345.407 14.5352L350.857 10.2794M344.616 15.1542H386.381M368.554 30.8182L362.182 36.4178M428.146 15.1542L432.999 10.2794M428.146 15.1542H386.381M386.381 15.1542L388.483 13.3071L391.928 10.2794M272.603 36.4178H317.393M272.603 36.4178H227.813M309.96 42.2238L317.393 36.4178M309.96 42.2238L302.247 48.2477M309.96 42.2238H355.575M317.393 36.4178H362.182M227.813 36.4178H183.024M227.813 36.4178L236.575 30.8182M362.182 36.4178L355.575 42.2238M236.575 30.8182H192.582M302.247 48.2477L300.273 49.7889L294.239 54.5021M302.247 48.2477H348.72M355.575 42.2238L348.72 48.2477M348.72 48.2477L341.601 54.5021M246.877 54.5021L245.741 55.3014L237.632 61.0015M246.877 54.5021H294.239M246.877 54.5021H199.515M294.239 54.5021L285.919 61.0015M294.239 54.5021H341.601M341.601 54.5021L340.693 55.3014L334.206 61.0015M237.632 61.0015H285.919M237.632 61.0015H189.346M277.268 67.7593L285.919 61.0015M277.268 67.7593L268.264 74.7915M277.268 67.7593H326.515M285.919 61.0015H334.206M189.346 61.0015H141.059M189.346 61.0015L199.515 54.5021M334.206 61.0015L326.515 67.7593M199.515 54.5021H152.152M268.264 74.7915L258.887 82.1153M268.264 74.7915H318.513M326.515 67.7593L318.513 74.7915M318.513 74.7915L310.178 82.1153M207.598 82.1153L196.738 89.7495M207.598 82.1153H258.887M207.598 82.1153H156.307M258.887 82.1153L249.114 89.7495M258.887 82.1153H310.178M310.178 82.1153L301.49 89.7495M196.738 89.7495H249.114M196.738 89.7495H144.361M238.918 97.7138L249.114 89.7495M238.918 97.7138L228.27 106.03M238.918 97.7138H292.426M249.114 89.7495H301.49M144.361 89.7495H91.9854M144.361 89.7495L156.307 82.1153M301.49 89.7495L292.426 97.7138M156.307 82.1153H105.017M228.27 106.03L217.142 114.723M228.27 106.03H282.963M292.426 97.7138L282.963 106.03M282.963 106.03L273.071 114.723M161.213 114.723L148.276 123.817M161.213 114.723H217.142M161.213 114.723H105.284M217.142 114.723L205.498 123.817M217.142 114.723H273.071M273.071 114.723L262.721 123.817M148.276 123.817H205.498M148.276 123.817H91.0536M193.303 133.342L205.498 123.817M193.303 133.342L180.517 143.33M193.303 133.342H251.88M205.498 123.817H262.721M91.0536 123.817H33.8312M91.0536 123.817L105.284 114.723M262.721 123.817L251.88 133.342M105.284 114.723H49.3555M180.517 143.33L167.095 153.814M180.517 143.33H240.515M251.88 133.342L240.515 143.33M240.515 143.33L228.584 153.814M105.605 153.814L89.9317 164.832M105.605 153.814H167.095M105.605 153.814H44.1162M167.095 153.814L152.988 164.832M167.095 153.814H228.584M228.584 153.814L216.046 164.832M89.9317 164.832H152.988M89.9317 164.832H26.8744M138.144 176.427L152.988 164.832M138.144 176.427L122.502 188.644M138.144 176.427H202.85M152.988 164.832H216.046M26.8744 164.832H-36.1821M26.8744 164.832L44.1162 153.814M216.046 164.832L202.85 176.427M44.1162 153.814H-17.3735M122.502 188.644L105.997 201.537M122.502 188.644H188.946M202.85 176.427L188.946 188.644M188.946 188.644L174.275 201.537M37.7184 201.537L18.3389 215.16M37.7184 201.537H105.997M37.7184 201.537H-30.5591M105.997 201.537L88.555 215.16M105.997 201.537H174.275M174.275 201.537L158.771 215.16M18.3389 215.16H88.555M18.3389 215.16H-51.8773M70.0935 229.581L88.555 215.16M70.0935 229.581L50.5212 244.868M70.0935 229.581H142.361M88.555 215.16H158.771M-51.8773 215.16H-122.093M-51.8773 215.16L-30.5591 201.537M158.771 215.16L142.361 229.581M-30.5591 201.537H-98.8375M50.5212 244.868L29.7338 261.105M50.5212 244.868H124.963M142.361 229.581L124.963 244.868M124.963 244.868L106.486 261.105M-47.018 261.105L-71.593 278.381M-47.018 261.105H29.7338M-47.018 261.105H-123.77M29.7338 261.105L7.6163 278.381M29.7338 261.105H106.486M106.486 261.105L86.8256 278.381M-71.593 278.381H7.6163M-71.593 278.381H-150.802M-15.9657 296.8L7.6163 278.381M-15.9657 296.8L-41.1602 316.48M-15.9657 296.8H65.8637M7.6163 278.381H86.8256M-150.802 278.381L-123.77 261.105M-150.802 278.381H-156.528M-150.802 278.381L-156.528 282.04M86.8256 278.381L65.8637 296.8M-123.77 261.105H-156.528M-41.1602 316.48L-68.1397 337.553M-41.1602 316.48H43.4685M65.8637 296.8L43.4685 316.48M43.4685 316.48L19.4863 337.553M-155.767 337.553H-68.1397M-155.767 337.553H-156.528M-155.767 337.553L-156.528 338.088M-68.1397 337.553L-97.1017 360.175M-68.1397 337.553H19.4863M19.4863 337.553L-6.25629 360.175M-128.271 384.521L-97.1017 360.175M-128.271 384.521H-33.9631M-128.271 384.521H-156.528M-128.271 384.521L-156.528 406.592M-97.1017 360.175H-6.25629M-97.1017 360.175H-156.528M-6.25629 360.175L-33.9631 384.521M-33.9631 384.521L-63.8651 410.797M-63.8651 410.797L-96.2357 439.242M-63.8651 410.797H-156.528M-96.2357 439.242L-131.394 470.136M-96.2357 439.242H-156.528M-131.394 470.136H-156.528M-131.394 470.136L-156.528 492.222M104.595 30.8182L93.4444 36.4178M104.595 30.8182H148.589M104.595 30.8182H60.6024M158.582 25.4142L168.232 20.1958M158.582 25.4142L148.589 30.8182M158.582 25.4142H201.807M168.232 20.1958H210.714M168.232 20.1958L177.556 15.1542M135.791 15.1542H177.556M135.791 15.1542L145.499 10.2794M135.791 15.1542H94.0264M148.589 30.8182L138.234 36.4178M148.589 30.8182H192.582M201.807 25.4142L210.714 20.1958M201.807 25.4142L192.582 30.8182M210.714 20.1958L219.321 15.1542M177.556 15.1542L178.699 14.5352L186.57 10.2794M177.556 15.1542H219.321M192.582 30.8182L183.024 36.4178M261.086 15.1542L268.713 10.2794M261.086 15.1542H219.321M219.321 15.1542L220.376 14.5352L227.642 10.2794M93.4444 36.4178H138.234M93.4444 36.4178H48.6548M127.497 42.2238L138.234 36.4178M127.497 42.2238L116.357 48.2477M127.497 42.2238H173.113M138.234 36.4178H183.024M48.6548 36.4178H3.86517M48.6548 36.4178L60.6024 30.8182M183.024 36.4178L173.113 42.2238M60.6024 30.8182H16.6095M116.357 48.2477L104.79 54.5021M116.357 48.2477H162.829M173.113 42.2238L171.848 42.9638L162.829 48.2477M162.829 48.2477L152.152 54.5021M57.4278 54.5021L44.4852 61.0015M57.4278 54.5021H104.79M57.4278 54.5021H10.0656M104.79 54.5021L92.772 61.0015M104.79 54.5021H152.152M152.152 54.5021L141.059 61.0015M44.4852 61.0015H92.772M44.4852 61.0015H-3.80152M80.2753 67.7593L92.772 61.0015M80.2753 67.7593L67.2706 74.7915M80.2753 67.7593H129.523M92.772 61.0015H141.059M-3.80152 61.0015H-52.0883M-3.80152 61.0015L10.0656 54.5021M141.059 61.0015L129.523 67.7593M10.0656 54.5021H-37.2967M67.2706 74.7915L53.7269 82.1153M67.2706 74.7915H117.519M129.523 67.7593L117.519 74.7915M117.519 74.7915L105.017 82.1153M2.43635 82.1153L-12.7673 89.7495M2.43635 82.1153H53.7269M2.43635 82.1153H-48.8542M53.7269 82.1153L39.6095 89.7495M53.7269 82.1153H105.017M105.017 82.1153L91.9854 89.7495M-12.7673 89.7495H39.6095M-12.7673 89.7495H-65.1432M24.8809 97.7138L39.6095 89.7495M24.8809 97.7138L9.50191 106.03M24.8809 97.7138H78.3906M39.6095 89.7495H91.9854M-65.1432 89.7495H-117.519M-65.1432 89.7495L-48.8542 82.1153M91.9854 89.7495L78.3906 97.7138M-48.8542 82.1153H-100.144M9.50191 106.03L-6.57329 114.723M9.50191 106.03H64.1937M78.3906 97.7138L64.1937 106.03M64.1937 106.03L49.3555 114.723M-62.5021 114.723L-80.6136 123.817M-62.5021 114.723H-6.57329M-62.5021 114.723H-118.43M-6.57329 114.723L-23.3912 123.817M-6.57329 114.723H49.3555M49.3555 114.723L33.8312 123.817M-80.6136 123.817H-23.3912M-41.0067 133.342L-23.3912 123.817M-41.0067 133.342L-59.4754 143.33M-41.0067 133.342H17.5715M-23.3912 123.817H33.8312M33.8312 123.817L17.5715 133.342M-118.43 114.723H-156.528M-59.4754 143.33L-78.8632 153.814M-59.4754 143.33H0.522414M17.5715 133.342L0.522414 143.33M0.522414 143.33L-17.3735 153.814M-140.353 153.814H-78.8632M-140.353 153.814H-156.528M-140.353 153.814L-156.528 161.935M-78.8632 153.814L-99.2395 164.832M-78.8632 153.814H-17.3735M-17.3735 153.814L-36.1821 164.832M-120.681 176.427L-99.2395 164.832M-120.681 176.427L-143.275 188.644M-120.681 176.427H-55.9746M-120.681 176.427H-156.528M-99.2395 164.832H-36.1821M-99.2395 164.832H-156.528M-36.1821 164.832L-55.9746 176.427M-156.706 162.025L-156.528 161.935M-143.275 188.644H-76.8305M-143.275 188.644H-156.528M-143.275 188.644L-156.528 195.811M-55.9746 176.427L-76.8305 188.644M-76.8305 188.644L-98.8375 201.537M-98.8375 201.537L-122.093 215.16M-98.8375 201.537H-156.528M-146.709 229.581L-122.093 215.16M-146.709 229.581H-156.528M-146.709 229.581L-156.528 235.333M-122.093 215.16H-156.528M-71.3765 30.8182L-85.7141 36.4178M-71.3765 30.8182H-27.3835M-71.3765 30.8182H-115.37M-14.3158 25.4142L-1.69664 20.1958M-14.3158 25.4142L-27.3835 30.8182M-14.3158 25.4142H28.9089M-1.69664 20.1958H40.7853M-1.69664 20.1958L10.4959 15.1542M-31.2689 15.1542H10.4959M-31.2689 15.1542L-18.7877 10.2794M-31.2689 15.1542H-73.0337M-27.3835 30.8182L-40.9245 36.4178M-27.3835 30.8182H16.6095M28.9089 25.4142L40.7853 20.1958M28.9089 25.4142L16.6095 30.8182M40.7853 20.1958L52.2606 15.1542M10.4959 15.1542H52.2606M10.4959 15.1542L22.2846 10.2794M16.6095 30.8182L3.86517 36.4178M94.0264 15.1542L104.427 10.2794M94.0264 15.1542H52.2606M52.2606 15.1542L63.356 10.2794M-85.7141 36.4178H-40.9245M-85.7141 36.4178H-130.504M-54.9651 42.2238L-40.9245 36.4178M-54.9651 42.2238L-69.5329 48.2477M-54.9651 42.2238H-9.34963M-40.9245 36.4178H3.86517M-130.504 36.4178L-115.37 30.8182M-130.504 36.4178H-156.528M3.86517 36.4178L-9.34963 42.2238M-115.37 30.8182H-156.528M-69.5329 48.2477L-84.6589 54.5021M-69.5329 48.2477H-23.0605M-9.34963 42.2238L-23.0605 48.2477M-23.0605 48.2477L-37.2967 54.5021M-132.021 54.5021L-148.662 61.0015M-132.021 54.5021H-84.6589M-132.021 54.5021H-156.528M-84.6589 54.5021L-100.375 61.0015M-84.6589 54.5021H-37.2967M-37.2967 54.5021L-52.0883 61.0015M-116.717 67.7593L-100.375 61.0015M-116.717 67.7593L-133.723 74.7915M-116.717 67.7593H-67.4692M-116.717 67.7593H-156.528M-100.375 61.0015H-148.662M-100.375 61.0015H-52.0883M-148.662 61.0015L-156.528 64.0731M-148.662 61.0015H-156.528M-52.0883 61.0015L-67.4692 67.7593M-133.723 74.7915L-151.435 82.1153M-133.723 74.7915H-83.4749M-133.723 74.7915H-156.528M-67.4692 67.7593L-83.4749 74.7915M-83.4749 74.7915L-100.144 82.1153M-151.435 82.1153H-100.144M-151.435 82.1153L-156.528 84.2211M-151.435 82.1153H-156.528M-100.144 82.1153L-117.519 89.7495M-135.646 97.7138L-117.519 89.7495M-135.646 97.7138L-154.574 106.03M-135.646 97.7138H-156.528M-117.519 89.7495H-156.528M-156.802 89.7495H-156.528M-154.574 106.03H-156.528M-154.574 106.03L-156.528 106.888M-157 107.096L-156.528 106.888M-143.989 25.4142L-129.143 20.1958M-143.989 25.4142H-156.528M-143.989 25.4142L-156.528 29.8211M-129.143 20.1958L-114.799 15.1542M-129.143 20.1958H-156.528M-73.0337 15.1542L-59.8591 10.2794M-73.0337 15.1542H-114.799M-114.799 15.1542L-100.931 10.2794M-114.799 15.1542H-156.528M1295.5 10.2794H1336.57M1295.5 10.2794H1254.43M1326.51 5.56435L1329 6.72877L1336.57 10.2794M1326.51 5.56435H1366.91M1336.57 10.2794H1377.64M1366.91 5.56435L1369.56 6.72877L1370.9 7.31368L1377.64 10.2794M1377.64 10.2794H1418.72M1418.72 10.2794H1459.79M1254.43 10.2794H1213.36M1459.79 10.2794H1500.86M1500.86 10.2794L1488.11 5.56435M1500.86 10.2794H1541.93M1488.11 5.56435H1528.51M1131.21 10.2794H1172.29M1131.21 10.2794H1090.14M1164.91 5.56435L1166.73 6.72877L1167.65 7.31368L1172.29 10.2794M1164.91 5.56435H1205.31M1172.29 10.2794H1213.36M1205.31 5.56435L1213.36 10.2794M1090.14 10.2794H1049.07M966.929 10.2794H1008M966.929 10.2794H925.858M1003.3 5.56435L1003.88 6.14477L1004.46 6.72877L1005.05 7.31368L1008 10.2794M1003.3 5.56435H1043.71M1008 10.2794H1049.07M1043.71 5.56435L1049.07 10.2794M925.858 10.2794H884.786M802.643 10.2794H843.714M802.643 10.2794H761.571M841.702 5.56435L843.714 10.2794M841.702 5.56435H882.103M843.714 10.2794H884.786M882.103 5.56435L882.434 6.14477L882.766 6.72877L883.099 7.31368L884.786 10.2794M761.571 10.2794H720.5M638.357 10.2794H679.429M638.357 10.2794H597.286M680.099 5.56435L679.429 10.2794M680.099 5.56435H720.5M679.429 10.2794H720.5M720.5 5.56435V10.2794M597.286 10.2794H556.214M474.071 10.2794H515.142M474.071 10.2794H432.999M518.496 5.56435L517.668 6.72877L515.991 9.08543L515.142 10.2794M518.496 5.56435H558.897M515.142 10.2794H556.214M558.897 5.56435L558.566 6.14477L558.234 6.72877L557.901 7.31368L556.214 10.2794M432.999 10.2794H391.928M309.785 10.2794H350.857M309.785 10.2794H268.713M356.893 5.56435L355.403 6.72877L354.653 7.31368L350.857 10.2794M356.893 5.56435H397.294M350.857 10.2794H391.928M397.294 5.56435L396.633 6.14477L391.928 10.2794M268.713 10.2794H227.642M145.499 10.2794H186.57M145.499 10.2794H104.427M195.29 5.56435L193.137 6.72877L192.053 7.31368L186.57 10.2794M195.29 5.56435H235.691M186.57 10.2794H227.642M235.691 5.56435L234.699 6.14477L227.642 10.2794M104.427 10.2794H63.356M-18.7877 10.2794H22.2846M-18.7877 10.2794H-59.8591M33.6869 5.56435L22.2846 10.2794M33.6869 5.56435H74.0877M22.2846 10.2794H63.356M74.0877 5.56435L71.4383 6.72877L70.1045 7.31368L63.356 10.2794M-59.8591 10.2794H-100.931M-127.916 5.56435L-142.002 10.2794M-127.916 5.56435H-87.5147M-127.916 5.56435H-156.528M-142.002 10.2794H-100.931M-142.002 10.2794L-156.528 15.1423M-142.002 10.2794H-156.528M-87.5147 5.56435L-90.8273 6.72877L-100.931 10.2794M1528.51 5.56435L1531.83 6.72877L1541.93 10.2794M1541.93 10.2794H1583M1583 10.2794L1597.53 15.1423M1583 10.2794H1597.53M1597.53 235.333V229.581M1597.53 235.333V244.868M1597.53 229.581V215.16M1597.53 244.868V247.718V261.105M1597.53 261.105V278.381M1597.53 123.817V114.723M1597.53 123.817V132.577M1597.53 5.56435V10.2794M1597.53 10.2794V15.1423M1597.53 15.1423L1597.56 15.1542H1597.53M1597.53 15.1423V15.1542M1597.53 15.1542V20.1958M1597.53 20.1958V25.4142M1597.53 25.4142V29.8211M1597.53 29.8211V30.8182M1597.53 30.8182V36.4178M1597.53 36.4178V42.2238M1597.53 42.2238V46.0454M1597.53 46.0454V48.2477M1597.53 48.2477V54.5021M1597.53 54.5021V61.0015M1597.53 61.0015V64.0731M1597.53 64.0731V67.7593M1597.53 67.7593V74.7915M1597.53 74.7915V82.1153M1597.53 82.1153V84.221M1597.53 84.221V89.7495M1597.53 89.7495V97.7138M1597.53 97.7138V106.03M1597.53 106.03V106.888M1597.53 106.888V114.723M1597.53 133.342V143.33M1597.53 133.342V132.577M1597.53 143.33V153.814M1597.53 153.814V161.936M1597.53 161.936V164.832M1597.53 164.832V176.427M1597.53 176.427V188.644M1597.53 188.644V195.811M1597.53 195.811V201.537M1597.53 201.537V215.16M1597.53 278.381V282.04M1597.53 282.04V296.8M1597.53 296.8V316.48M1597.53 316.48V337.553M1597.53 337.553V338.088M1597.53 338.088V360.175M1597.53 360.175V384.521M1597.53 384.521V406.592M1597.53 406.592V410.797M1597.53 410.797V439.242M1597.53 439.242V470.136M1597.53 470.136V492.222M1597.53 492.222V503.809M1597.53 503.809V540.654M1597.53 540.654V581.142M1597.53 581.142V602.318M1597.53 602.318V625.84M1597.53 625.84V626H-156.528V625.84M-156.528 133.342V143.33M-156.528 133.342V132.577M-156.528 132.577V123.817M-156.528 123.817V114.723M-156.528 114.723V106.888M-156.528 106.888V106.03M-156.528 106.03V97.7138M-156.528 97.7138V89.7495M-156.528 89.7495V84.2211M-156.528 84.2211V82.1153M-156.528 82.1153V74.7915M-156.528 74.7915V67.7593M-156.528 67.7593V64.0731M-156.528 64.0731V61.0015M-156.528 61.0015V54.5021M-156.528 54.5021V48.2477M-156.528 48.2477V46.0454M-156.528 46.0454V42.2238M-156.528 42.2238V36.4178M-156.528 36.4178V30.8182M-156.528 30.8182V29.8211M-156.528 29.8211V25.4142M-156.528 25.4142V20.1958M-156.528 20.1958V15.1542M-156.528 15.1542H-156.563L-156.528 15.1423M-156.528 15.1542V15.1423M-156.528 15.1423V10.2794M-156.528 10.2794V5.56435M-156.528 625.84V602.318M-156.528 602.318V581.142M-156.528 581.142V540.655M-156.528 540.655V503.809M-156.528 503.809V492.222M-156.528 492.222V470.136M-156.528 470.136V439.242M-156.528 439.242V410.797M-156.528 410.797V406.592M-156.528 406.592V384.521M-156.528 384.521V360.175M-156.528 360.175V338.088M-156.528 338.088V337.553M-156.528 337.553V316.48M-156.528 316.48V296.8M-156.528 296.8V282.04M-156.528 282.04V278.381M-156.528 278.381V261.105M-156.528 261.105V244.868M-156.528 244.868V235.333M-156.528 235.333V229.581M-156.528 229.581V215.16M-156.528 215.16V201.537M-156.528 201.537V195.811M-156.528 195.811V188.644M-156.528 188.644V176.427M-156.528 176.427V164.832M-156.528 164.832V161.935M-156.528 161.935V153.814M-156.528 153.814V143.33" stroke="url(#paint0_linear_658_275)" stroke-opacity="0.4" stroke-width="1.2" stroke-miterlimit="10" stroke-linecap="round" stroke-linejoin="round"/>
<defs>
<linearGradient id="paint0_linear_658_275" x1="721" y1="281" x2="721" y2="626" gradientUnits="userSpaceOnUse">
<stop stop-color="#682BB2" stop-opacity="0"/>
<stop offset="1" stop-color="#682BB2"/>
</linearGradient>
</defs>
</svg>
