<svg width="1449" height="1393" viewBox="0 0 1449 1393" fill="none" xmlns="http://www.w3.org/2000/svg">
<path d="M1447.02 46.0534V46.0311L1447.02 46.0089L1445.89 20.5976C1445.44 10.6371 1432.28 7.41144 1427.28 16.0384C1424.22 21.3276 1416.59 21.3495 1413.49 16.0781L1409.55 9.35962C1403.93 -0.214254 1390.04 -0.0899048 1384.44 9.45912C1379.62 17.6555 1367.72 17.6954 1362.97 9.49658C1357.43 -0.0719624 1343.61 -0.0719633 1338.07 9.49661C1333.32 17.6954 1321.41 17.6555 1316.6 9.45914C1310.99 -0.102305 1297.05 -0.102371 1291.43 9.45912C1286.62 17.6555 1274.72 17.6954 1269.97 9.49658C1264.42 -0.0719624 1250.61 -0.0719633 1245.06 9.49661C1240.31 17.6954 1228.41 17.6555 1223.6 9.45914C1217.99 -0.102305 1204.04 -0.102371 1198.43 9.45912C1193.62 17.6555 1181.72 17.6954 1176.97 9.49658C1171.42 -0.0719624 1157.61 -0.0719633 1152.06 9.49661C1147.32 17.6871 1135.38 17.5983 1130.56 9.39359C1124.99 -0.0888329 1111.15 -0.294325 1105.56 9.22936C1100.78 17.3766 1088.94 17.3375 1084.09 9.19343C1078.44 -0.299068 1064.59 -0.329581 1058.94 9.16895C1054.03 17.4363 1042.03 17.4918 1037.12 9.24255L1036.87 8.82218C1031.29 -0.549877 1017.72 -0.549872 1012.15 8.82219C1007.35 16.8909 995.667 16.8909 990.868 8.82219C985.293 -0.549872 971.723 -0.549877 966.148 8.82219L965.869 9.29069C961.032 17.4226 949.246 17.3888 944.456 9.22938C938.876 -0.273727 925.136 -0.273716 919.557 9.22938C914.773 17.3766 902.93 17.3375 898.085 9.19345C892.437 -0.302068 878.572 -0.302064 872.924 9.19345C868.08 17.3375 856.236 17.3766 851.453 9.22939C845.873 -0.273714 832.133 -0.273713 826.554 9.22939C821.77 17.3766 809.927 17.3375 805.082 9.19345C799.434 -0.302073 785.57 -0.302056 779.921 9.19345C775.082 17.3283 763.195 17.3119 758.406 9.15542C752.871 -0.272017 739.184 -0.364687 733.638 9.08151C728.87 17.2018 717.129 17.2018 712.362 9.08152C706.816 -0.364685 693.128 -0.272026 687.593 9.15541C682.804 17.3119 670.917 17.3283 666.078 9.19345C660.43 -0.302066 646.565 -0.302069 640.917 9.19345C636.072 17.3375 624.229 17.3766 619.445 9.22938C613.866 -0.273714 600.126 -0.273727 594.546 9.22938C589.763 17.3766 577.919 17.3375 573.075 9.19345C567.427 -0.302072 553.562 -0.302066 547.914 9.19345C543.069 17.3375 531.226 17.3766 526.442 9.22939C520.863 -0.273716 507.123 -0.273714 501.543 9.22939C496.753 17.3888 484.967 17.4226 480.13 9.2907L479.851 8.82214C474.276 -0.549913 460.707 -0.549884 455.132 8.82217C450.332 16.8909 438.649 16.8909 433.85 8.82217C428.275 -0.549884 414.705 -0.549895 409.13 8.82216L408.88 9.24248C403.973 17.4917 391.972 17.4362 387.055 9.16889C381.404 -0.32964 367.554 -0.299054 361.908 9.19343C357.063 17.3375 345.22 17.3766 340.437 9.22937C334.845 -0.294306 321.008 -0.0888367 315.441 9.39358C310.624 17.5983 298.683 17.6871 293.937 9.49662C288.393 -0.0719509 274.578 -0.0719528 269.034 9.49662C264.283 17.6954 252.381 17.6555 247.568 9.45915C241.955 -0.102335 228.013 -0.102337 222.4 9.45915C217.587 17.6555 205.685 17.6954 200.934 9.49662C195.39 -0.071949 181.575 -0.071949 176.031 9.49662C171.28 17.6954 159.378 17.6555 154.565 9.45915C148.952 -0.102336 135.01 -0.102334 129.397 9.45915C124.584 17.6555 112.682 17.6954 107.931 9.49662C102.388 -0.0719481 88.5716 -0.071949 83.0276 9.49662C78.2773 17.6954 66.3748 17.6555 61.5625 9.45915C55.9561 -0.0898714 42.073 -0.214267 36.452 9.35964L31.9792 16.9779C29.1202 21.8474 22.0727 21.8271 19.2419 16.9412C14.4161 8.6122 1.67369 12.098 1.75958 21.7237L1.9767 46.0534V46.0579V1391V1392H2.9767H1446.02H1447.02V1391V46.0534Z" fill="url(#paint0_linear_850_5770)" stroke="url(#paint1_linear_850_5770)" stroke-width="2"/>
<defs>
<linearGradient id="paint0_linear_850_5770" x1="723" y1="-10" x2="723" y2="1955.66" gradientUnits="userSpaceOnUse">
<stop stop-color="#230E51"/>
<stop offset="0.123381" stop-color="#230E51" stop-opacity="0.541805"/>
<stop offset="0.173135" stop-color="#230E51" stop-opacity="0.384311"/>
<stop offset="0.252289" stop-color="#230E51" stop-opacity="0.275426"/>
<stop offset="0.448776" stop-color="#230E51" stop-opacity="0"/>
</linearGradient>
<linearGradient id="paint1_linear_850_5770" x1="723" y1="-10" x2="723" y2="1391" gradientUnits="userSpaceOnUse">
<stop stop-color="white" stop-opacity="0.3"/>
<stop offset="1" stop-color="white" stop-opacity="0"/>
</linearGradient>
</defs>
</svg>
