<svg width="1458" height="875" viewBox="0 0 1458 875" fill="none" xmlns="http://www.w3.org/2000/svg">
<path fill-rule="evenodd" clip-rule="evenodd" d="M145.672 0.509956H0.509939V145.677H130.634L145.672 130.638V0.509956ZM161.112 145.677L146.268 130.832V0.509956H291.43V145.677H161.112ZM146.268 160.897L160.891 146.273H291.43V291.44H146.268V160.897ZM130.855 146.273L145.672 161.091V291.44H0.509939V146.273H130.855ZM0 0V145.763V146.187V291.525V291.95V437.287V437.712V583.05V583.475V728.813V729.237V875H145.758H146.182H291.515H291.94H437.272H437.697H583.03H583.455H728.787H729.212H874.545H874.97H1020.3H1020.73H1166.06H1166.48H1311.82H1312.24H1458L1458 729.237V583.475V583.05V437.287V291.95V146.187V145.763V0H1312.24H1311.82H1166.48H1166.06H1020.73H1020.3H874.97H874.545H729.212H728.787H583.455H583.03H437.697H437.272H291.94H291.515H146.182H145.758H0ZM292.025 0.509956H437.187V145.677H292.025V0.509956ZM582.945 0.509956H437.782V145.677H582.945V0.509956ZM583.54 0.509956H728.702V145.677H583.54V0.509956ZM874.46 0.509956H729.297V145.677H874.46V0.509956ZM875.055 0.509956H1020.22V145.677H875.055V0.509956ZM1165.97 0.509956H1020.81V145.677H1165.97V0.509956ZM1166.57 0.509956H1311.73V145.677H1166.57V0.509956ZM1457.49 0.509956H1312.33V145.677H1457.49V0.509956ZM292.025 146.273H437.187V291.44H292.025V146.273ZM582.945 146.273H437.782V291.44H568.343L582.945 276.838V146.273ZM597.908 291.44L583.54 277.072V146.273H728.702V291.44H597.908ZM583.54 307.097L598.552 292.084L598.502 292.035H728.702V437.202H583.54V307.097ZM567.749 292.035L567.699 292.084L582.945 307.331V437.202H437.782V292.035H567.749ZM874.46 146.273H729.297V291.44H874.46V146.273ZM875.055 146.273H1020.22V291.44H875.055V146.273ZM1165.97 146.273H1020.81V291.44H1165.97V146.273ZM1166.57 146.273H1311.73V251.166L1311.49 251.412L1271.46 291.44H1166.57V146.273ZM1270.86 292.035H1166.57V422.901L1167.06 422.413L1181.85 437.202H1311.73V333.003L1311.49 332.757L1271.21 292.478L1270.81 292.084L1270.86 292.035ZM1311.73 332.216L1271.6 292.084L1271.65 292.035H1296.5L1296.45 292.084L1311.73 307.364V332.216ZM1312.33 332.703V437.202H1457.49V292.035H1352.89L1352.94 292.084L1352.55 292.478L1312.33 332.703ZM1352.11 292.035L1352.16 292.084L1312.33 331.915V307.064L1327.31 292.084L1327.26 292.035H1352.11ZM1352.3 291.44H1457.49V146.273H1312.33V251.466L1352.3 291.44ZM1312.33 252.254L1351.51 291.44H1326.66L1312.33 277.105V252.254ZM1311.73 251.954L1272.25 291.44H1297.1L1311.73 276.805V251.954ZM1166.57 452.779L1167.06 453.267L1182.48 437.84L1182.44 437.797H1311.73V582.965H1166.57V452.779ZM1151.67 437.797L1151.63 437.84L1165.97 452.185V582.965H1020.81V437.797H1151.67ZM1165.97 423.496L1152.27 437.202H1020.81V292.035H1165.97V423.496ZM0.509939 292.035H145.672V437.202H0.509939V292.035ZM291.43 292.035H146.268V437.202H291.43V292.035ZM292.025 292.035H437.187V437.202H292.025V292.035ZM874.46 292.035H729.298V437.202H874.46V292.035ZM875.055 292.035H1020.22V437.202H875.055V292.035ZM0.509939 437.797H145.672V582.965H0.509939V437.797ZM291.43 437.797H146.268V582.965H251.321L251.132 582.776L251.526 582.382L291.43 542.477V437.797ZM291.43 543.264L251.92 582.776L252.109 582.965H276.959L276.77 582.776L291.43 568.116V543.264ZM292.025 567.521V542.67L292.197 542.498L332.474 582.776L332.285 582.965H307.434L307.623 582.776L292.197 567.349L292.025 567.521ZM292.025 598.031L292.197 598.203L306.839 583.56H331.69L292.197 623.054L292.025 622.882V598.031ZM277.554 583.56L291.43 597.436V622.288L252.704 583.56H277.554ZM251.916 583.56H146.268V728.727H291.43V623.075L251.916 583.56ZM292.025 623.67V728.727H437.187V583.56H332.478L292.591 623.448L292.197 623.842L292.025 623.67ZM333.073 582.965H437.187V437.797H292.025V541.882L292.197 541.71L292.591 542.104L332.868 582.382L333.261 582.776L333.073 582.965ZM582.945 437.797H437.782V582.965H582.945V437.797ZM583.54 437.797H728.702V582.965H583.54V437.797ZM874.46 437.797H729.297V582.965H874.46V437.797ZM875.055 437.797H1020.22V582.965H875.055V437.797ZM1457.49 437.797H1312.33V582.965H1457.49V437.797ZM0.509939 583.56H145.672V728.727H0.509939V583.56ZM582.945 583.56H437.782V728.727H582.945V583.56ZM583.54 583.56H728.702V728.727H583.54V583.56ZM874.46 583.56H729.297V728.727H874.46V583.56ZM875.055 583.56H1020.22V728.727H875.055V583.56ZM1165.97 583.56H1020.81V728.727H1165.97V583.56ZM1166.57 583.56H1311.73V728.727H1166.57V583.56ZM1457.49 583.56H1312.33V728.727H1457.49V583.56ZM0.509939 729.323H145.672V874.49H0.509939V729.323ZM291.43 729.323H146.268V874.49H291.43V729.323ZM292.025 729.323H437.187V874.49H292.025V729.323ZM582.945 729.323H437.782V874.49H582.945V729.323ZM583.54 729.323H728.702V874.49H583.54V729.323ZM874.46 729.323H729.297V874.49H874.46V729.323ZM875.055 729.323H1020.22V874.49H875.055V729.323ZM1165.97 729.323H1020.81V874.49H1165.97V729.323ZM1166.57 729.323H1311.73V874.49H1166.57V729.323ZM1457.49 729.323H1312.33V874.49H1457.49V729.323Z" fill="url(#paint0_radial_692_579)" fill-opacity="0.6"/>
<path fill-rule="evenodd" clip-rule="evenodd" d="M145.672 0.509956H0.509939V145.677H130.634L145.672 130.638V0.509956ZM161.112 145.677L146.268 130.832V0.509956H291.43V145.677H161.112ZM146.268 160.897L160.891 146.273H291.43V291.44H146.268V160.897ZM130.855 146.273L145.672 161.091V291.44H0.509939V146.273H130.855ZM0 0V145.763V146.187V291.525V291.95V437.287V437.712V583.05V583.475V728.813V729.237V875H145.758H146.182H291.515H291.94H437.272H437.697H583.03H583.455H728.787H729.212H874.545H874.97H1020.3H1020.73H1166.06H1166.48H1311.82H1312.24H1458L1458 729.237V583.475V583.05V437.287V291.95V146.187V145.763V0H1312.24H1311.82H1166.48H1166.06H1020.73H1020.3H874.97H874.545H729.212H728.787H583.455H583.03H437.697H437.272H291.94H291.515H146.182H145.758H0ZM292.025 0.509956H437.187V145.677H292.025V0.509956ZM582.945 0.509956H437.782V145.677H582.945V0.509956ZM583.54 0.509956H728.702V145.677H583.54V0.509956ZM874.46 0.509956H729.297V145.677H874.46V0.509956ZM875.055 0.509956H1020.22V145.677H875.055V0.509956ZM1165.97 0.509956H1020.81V145.677H1165.97V0.509956ZM1166.57 0.509956H1311.73V145.677H1166.57V0.509956ZM1457.49 0.509956H1312.33V145.677H1457.49V0.509956ZM292.025 146.273H437.187V291.44H292.025V146.273ZM582.945 146.273H437.782V291.44H568.343L582.945 276.838V146.273ZM597.908 291.44L583.54 277.072V146.273H728.702V291.44H597.908ZM583.54 307.097L598.552 292.084L598.502 292.035H728.702V437.202H583.54V307.097ZM567.749 292.035L567.699 292.084L582.945 307.331V437.202H437.782V292.035H567.749ZM874.46 146.273H729.297V291.44H874.46V146.273ZM875.055 146.273H1020.22V291.44H875.055V146.273ZM1165.97 146.273H1020.81V291.44H1165.97V146.273ZM1166.57 146.273H1311.73V251.166L1311.49 251.412L1271.46 291.44H1166.57V146.273ZM1270.86 292.035H1166.57V422.901L1167.06 422.413L1181.85 437.202H1311.73V333.003L1311.49 332.757L1271.21 292.478L1270.81 292.084L1270.86 292.035ZM1311.73 332.216L1271.6 292.084L1271.65 292.035H1296.5L1296.45 292.084L1311.73 307.364V332.216ZM1312.33 332.703V437.202H1457.49V292.035H1352.89L1352.94 292.084L1352.55 292.478L1312.33 332.703ZM1352.11 292.035L1352.16 292.084L1312.33 331.915V307.064L1327.31 292.084L1327.26 292.035H1352.11ZM1352.3 291.44H1457.49V146.273H1312.33V251.466L1352.3 291.44ZM1312.33 252.254L1351.51 291.44H1326.66L1312.33 277.105V252.254ZM1311.73 251.954L1272.25 291.44H1297.1L1311.73 276.805V251.954ZM1166.57 452.779L1167.06 453.267L1182.48 437.84L1182.44 437.797H1311.73V582.965H1166.57V452.779ZM1151.67 437.797L1151.63 437.84L1165.97 452.185V582.965H1020.81V437.797H1151.67ZM1165.97 423.496L1152.27 437.202H1020.81V292.035H1165.97V423.496ZM0.509939 292.035H145.672V437.202H0.509939V292.035ZM291.43 292.035H146.268V437.202H291.43V292.035ZM292.025 292.035H437.187V437.202H292.025V292.035ZM874.46 292.035H729.298V437.202H874.46V292.035ZM875.055 292.035H1020.22V437.202H875.055V292.035ZM0.509939 437.797H145.672V582.965H0.509939V437.797ZM291.43 437.797H146.268V582.965H251.321L251.132 582.776L251.526 582.382L291.43 542.477V437.797ZM291.43 543.264L251.92 582.776L252.109 582.965H276.959L276.77 582.776L291.43 568.116V543.264ZM292.025 567.521V542.67L292.197 542.498L332.474 582.776L332.285 582.965H307.434L307.623 582.776L292.197 567.349L292.025 567.521ZM292.025 598.031L292.197 598.203L306.839 583.56H331.69L292.197 623.054L292.025 622.882V598.031ZM277.554 583.56L291.43 597.436V622.288L252.704 583.56H277.554ZM251.916 583.56H146.268V728.727H291.43V623.075L251.916 583.56ZM292.025 623.67V728.727H437.187V583.56H332.478L292.591 623.448L292.197 623.842L292.025 623.67ZM333.073 582.965H437.187V437.797H292.025V541.882L292.197 541.71L292.591 542.104L332.868 582.382L333.261 582.776L333.073 582.965ZM582.945 437.797H437.782V582.965H582.945V437.797ZM583.54 437.797H728.702V582.965H583.54V437.797ZM874.46 437.797H729.297V582.965H874.46V437.797ZM875.055 437.797H1020.22V582.965H875.055V437.797ZM1457.49 437.797H1312.33V582.965H1457.49V437.797ZM0.509939 583.56H145.672V728.727H0.509939V583.56ZM582.945 583.56H437.782V728.727H582.945V583.56ZM583.54 583.56H728.702V728.727H583.54V583.56ZM874.46 583.56H729.297V728.727H874.46V583.56ZM875.055 583.56H1020.22V728.727H875.055V583.56ZM1165.97 583.56H1020.81V728.727H1165.97V583.56ZM1166.57 583.56H1311.73V728.727H1166.57V583.56ZM1457.49 583.56H1312.33V728.727H1457.49V583.56ZM0.509939 729.323H145.672V874.49H0.509939V729.323ZM291.43 729.323H146.268V874.49H291.43V729.323ZM292.025 729.323H437.187V874.49H292.025V729.323ZM582.945 729.323H437.782V874.49H582.945V729.323ZM583.54 729.323H728.702V874.49H583.54V729.323ZM874.46 729.323H729.297V874.49H874.46V729.323ZM875.055 729.323H1020.22V874.49H875.055V729.323ZM1165.97 729.323H1020.81V874.49H1165.97V729.323ZM1166.57 729.323H1311.73V874.49H1166.57V729.323ZM1457.49 729.323H1312.33V874.49H1457.49V729.323Z" fill="url(#paint1_radial_692_579)" fill-opacity="0.6"/>
<defs>
<radialGradient id="paint0_radial_692_579" cx="0" cy="0" r="1" gradientUnits="userSpaceOnUse" gradientTransform="translate(19.1577 -5.39942e-06) rotate(42.2964) scale(795.408 1325.04)">
<stop stop-color="white" stop-opacity="0.5"/>
<stop offset="0.737599" stop-color="white" stop-opacity="0"/>
</radialGradient>
<radialGradient id="paint1_radial_692_579" cx="0" cy="0" r="1" gradientUnits="userSpaceOnUse" gradientTransform="translate(1534.5 659.5) rotate(-164.858) scale(779.048 1297.53)">
<stop stop-color="white" stop-opacity="0.5"/>
<stop offset="0.610971" stop-color="white" stop-opacity="0"/>
</radialGradient>
</defs>
</svg>
