<svg width="1440" height="858" viewBox="0 0 1440 858" fill="none" xmlns="http://www.w3.org/2000/svg">
<g clip-path="url(#clip0_818_5697)">
<g filter="url(#filter0_f_818_5697)">
<circle cx="18" cy="328" r="187" fill="#45154A"/>
</g>
<g filter="url(#filter1_f_818_5697)">
<circle cx="1415" cy="508" r="187" fill="#4A3915"/>
</g>
<path fill-rule="evenodd" clip-rule="evenodd" d="M141.474 30.5059H-2.49426V174.512H126.558L141.474 159.593V30.5059ZM156.786 174.512L142.064 159.785V30.5059H286.031V174.512H156.786ZM142.064 189.61L156.567 175.102H286.031V319.109H142.064V189.61ZM126.778 175.102L141.474 189.802V319.109H-2.49426V175.102H126.778ZM-3 30V174.596V175.018V319.193V319.614V463.789V464.21V608.386V608.807V752.982V753.403V898H141.558H141.979H286.115H286.537H430.673H431.095H575.231H575.653H719.789H720.211H864.347H864.768H1008.9H1009.33H1153.46H1153.88H1298.02H1298.44H1443L1443 753.403V608.807V608.386V463.789V319.614V175.018V174.596V30H1298.44H1298.02H1153.88H1153.46H1009.33H1008.9H864.768H864.347H720.211H719.789H575.653H575.231H431.095H430.673H286.537H286.115H141.979H141.558H-3ZM286.621 30.5059H430.589V174.512H286.621V30.5059ZM575.147 30.5059H431.179V174.512H575.147V30.5059ZM575.737 30.5059H719.705V174.512H575.737V30.5059ZM864.262 30.5059H720.295V174.512H864.262V30.5059ZM864.853 30.5059H1008.82V174.512H864.853V30.5059ZM1153.38 30.5059H1009.41V174.512H1153.38V30.5059ZM1153.97 30.5059H1297.94V174.512H1153.97V30.5059ZM1442.49 30.5059H1298.53V174.512H1442.49V30.5059ZM286.621 175.102H430.589V319.109H286.621V175.102ZM575.147 175.102H431.179V319.109H560.666L575.147 304.624V175.102ZM589.987 319.109L575.737 304.855V175.102H719.705V319.109H589.987ZM575.737 334.64L590.626 319.748L590.576 319.698H719.705V463.705H575.737V334.64ZM560.076 319.698L560.027 319.748L575.147 334.872V463.705H431.179V319.698H560.076ZM864.262 175.102H720.295V319.109H864.262V175.102ZM864.853 175.102H1008.82V319.109H864.853V175.102ZM1153.38 175.102H1009.41V319.109H1153.38V175.102ZM1153.97 175.102H1297.94V279.157L1297.69 279.401L1257.99 319.109H1153.97V175.102ZM1257.4 319.698H1153.97V449.518L1154.45 449.034L1169.12 463.705H1297.94V360.339L1297.69 360.095L1257.75 320.138L1257.36 319.748L1257.4 319.698ZM1297.94 359.558L1258.14 319.748L1258.19 319.698H1282.83L1282.78 319.748L1297.94 334.905V359.558ZM1298.53 360.041V463.705H1442.49V319.698H1338.76L1338.81 319.748L1338.42 320.138L1298.53 360.041ZM1337.98 319.698L1338.03 319.748L1298.53 359.26V334.608L1313.38 319.748L1313.33 319.698H1337.98ZM1338.17 319.109H1442.49V175.102H1298.53V279.455L1338.17 319.109ZM1298.53 280.236L1337.39 319.109H1312.74L1298.53 304.888V280.236ZM1297.94 279.938L1258.78 319.109H1283.42L1297.94 304.591V279.938ZM1153.97 479.157L1154.45 479.641L1169.75 464.338L1169.71 464.295H1297.94V608.301H1153.97V479.157ZM1139.19 464.295L1139.15 464.338L1153.38 478.567V608.301H1009.41V464.295H1139.19ZM1153.38 450.108L1139.79 463.705H1009.41V319.698H1153.38V450.108ZM-2.49426 319.698H141.474V463.705H-2.49426V319.698ZM286.031 319.698H142.064V463.705H286.031V319.698ZM286.621 319.698H430.589V463.705H286.621V319.698ZM864.263 319.698H720.295V463.705H864.263V319.698ZM864.853 319.698H1008.82V463.705H864.853V319.698ZM-2.49426 464.295H141.474V608.301H-2.49426V464.295ZM286.031 464.295H142.064V608.301H246.252L246.065 608.114L246.456 607.723L286.031 568.137V464.295ZM286.031 568.918L246.846 608.114L247.034 608.301H271.68L271.493 608.114L286.031 593.571V568.918ZM286.621 592.981V568.328L286.792 568.158L326.737 608.114L326.55 608.301H301.904L302.091 608.114L286.792 592.81L286.621 592.981ZM286.621 623.247L286.792 623.417L301.314 608.891H325.96L286.792 648.07L286.621 647.899V623.247ZM272.27 608.891L286.031 622.657V647.309L247.624 608.891H272.27ZM246.843 608.891H142.064V752.898H286.031V648.091L246.843 608.891ZM286.621 648.681V752.898H430.589V608.891H326.741L287.182 648.461L286.792 648.851L286.621 648.681ZM327.331 608.301H430.589V464.295H286.621V567.547L286.792 567.376L287.182 567.767L327.128 607.723L327.518 608.114L327.331 608.301ZM575.147 464.295H431.179V608.301H575.147V464.295ZM575.737 464.295H719.705V608.301H575.737V464.295ZM864.262 464.295H720.295V608.301H864.262V464.295ZM864.853 464.295H1008.82V608.301H864.853V464.295ZM1442.49 464.295H1298.53V608.301H1442.49V464.295ZM-2.49426 608.891H141.474V752.898H-2.49426V608.891ZM575.147 608.891H431.179V752.898H575.147V608.891ZM575.737 608.891H719.705V752.898H575.737V608.891ZM864.262 608.891H720.295V752.898H864.262V608.891ZM864.853 608.891H1008.82V752.898H864.853V608.891ZM1153.38 608.891H1009.41V752.898H1153.38V608.891ZM1153.97 608.891H1297.94V752.898H1153.97V608.891ZM1442.49 608.891H1298.53V752.898H1442.49V608.891ZM-2.49426 753.488H141.474V897.494H-2.49426V753.488ZM286.031 753.488H142.064V897.494H286.031V753.488ZM286.621 753.488H430.589V897.494H286.621V753.488ZM575.147 753.488H431.179V897.494H575.147V753.488ZM575.737 753.488H719.705V897.494H575.737V753.488ZM864.262 753.488H720.295V897.494H864.262V753.488ZM864.853 753.488H1008.82V897.494H864.853V753.488ZM1153.38 753.488H1009.41V897.494H1153.38V753.488ZM1153.97 753.488H1297.94V897.494H1153.97V753.488ZM1442.49 753.488H1298.53V897.494H1442.49V753.488Z" fill="url(#paint0_radial_818_5697)" fill-opacity="0.5"/>
</g>
<defs>
<filter id="filter0_f_818_5697" x="-453" y="-143" width="942" height="942" filterUnits="userSpaceOnUse" color-interpolation-filters="sRGB">
<feFlood flood-opacity="0" result="BackgroundImageFix"/>
<feBlend mode="normal" in="SourceGraphic" in2="BackgroundImageFix" result="shape"/>
<feGaussianBlur stdDeviation="142" result="effect1_foregroundBlur_818_5697"/>
</filter>
<filter id="filter1_f_818_5697" x="944" y="37" width="942" height="942" filterUnits="userSpaceOnUse" color-interpolation-filters="sRGB">
<feFlood flood-opacity="0" result="BackgroundImageFix"/>
<feBlend mode="normal" in="SourceGraphic" in2="BackgroundImageFix" result="shape"/>
<feGaussianBlur stdDeviation="142" result="effect1_foregroundBlur_818_5697"/>
</filter>
<radialGradient id="paint0_radial_818_5697" cx="0" cy="0" r="1" gradientUnits="userSpaceOnUse" gradientTransform="translate(720 430.5) rotate(90) scale(277.5 462.287)">
<stop stop-color="#9BD7FF"/>
<stop offset="0.769524" stop-color="#9BD7FF" stop-opacity="0.2"/>
</radialGradient>
<clipPath id="clip0_818_5697">
<rect width="1440" height="858" fill="white"/>
</clipPath>
</defs>
</svg>
