<svg width="1440" height="680" viewBox="0 0 1440 680" fill="none" xmlns="http://www.w3.org/2000/svg">
<g clip-path="url(#clip0_736_579)">
<path fill-rule="evenodd" clip-rule="evenodd" d="M141.474 -69.4941H-2.49426V74.5121H126.558L141.474 59.593V-69.4941ZM156.786 74.5121L142.064 59.7854V-69.4941H286.031V74.5121H156.786ZM142.064 89.6097L156.567 75.1024H286.031V219.109H142.064V89.6097ZM126.778 75.1024L141.474 89.8021V219.109H-2.49426V75.1024H126.778ZM-3 -70V74.5965V75.0179V219.193V219.614V363.789V364.21V508.386V508.807V652.982V653.403V798H141.558H141.979H286.115H286.537H430.673H431.095H575.231H575.653H719.789H720.211H864.347H864.768H1008.9H1009.33H1153.46H1153.88H1298.02H1298.44H1443L1443 653.403V508.807V508.386V363.789V219.614V75.0179V74.5965V-70H1298.44H1298.02H1153.88H1153.46H1009.33H1008.9H864.768H864.347H720.211H719.789H575.653H575.231H431.095H430.673H286.537H286.115H141.979H141.558H-3ZM286.621 -69.4941H430.589V74.5121H286.621V-69.4941ZM575.147 -69.4941H431.179V74.5121H575.147V-69.4941ZM575.737 -69.4941H719.705V74.5121H575.737V-69.4941ZM864.262 -69.4941H720.295V74.5121H864.262V-69.4941ZM864.853 -69.4941H1008.82V74.5121H864.853V-69.4941ZM1153.38 -69.4941H1009.41V74.5121H1153.38V-69.4941ZM1153.97 -69.4941H1297.94V74.5121H1153.97V-69.4941ZM1442.49 -69.4941H1298.53V74.5121H1442.49V-69.4941ZM286.621 75.1024H430.589V219.109H286.621V75.1024ZM575.147 75.1024H431.179V219.109H560.666L575.147 204.624V75.1024ZM589.987 219.109L575.737 204.855V75.1024H719.705V219.109H589.987ZM575.737 234.64L590.626 219.748L590.576 219.698H719.705V363.705H575.737V234.64ZM560.076 219.698L560.027 219.748L575.147 234.872V363.705H431.179V219.698H560.076ZM864.262 75.1024H720.295V219.109H864.262V75.1024ZM864.853 75.1024H1008.82V219.109H864.853V75.1024ZM1153.38 75.1024H1009.41V219.109H1153.38V75.1024ZM1153.97 75.1024H1297.94V179.157L1297.69 179.401L1257.99 219.109H1153.97V75.1024ZM1257.4 219.698H1153.97V349.518L1154.45 349.034L1169.12 363.705H1297.94V260.339L1297.69 260.095L1257.75 220.138L1257.36 219.748L1257.4 219.698ZM1297.94 259.558L1258.14 219.748L1258.19 219.698H1282.83L1282.78 219.748L1297.94 234.905V259.558ZM1298.53 260.041V363.705H1442.49V219.698H1338.76L1338.81 219.748L1338.42 220.138L1298.53 260.041ZM1337.98 219.698L1338.03 219.748L1298.53 259.26V234.608L1313.38 219.748L1313.33 219.698H1337.98ZM1338.17 219.109H1442.49V75.1024H1298.53V179.455L1338.17 219.109ZM1298.53 180.236L1337.39 219.109H1312.74L1298.53 204.888V180.236ZM1297.94 179.938L1258.78 219.109H1283.42L1297.94 204.591V179.938ZM1153.97 379.157L1154.45 379.641L1169.75 364.338L1169.71 364.295H1297.94V508.301H1153.97V379.157ZM1139.19 364.295L1139.15 364.338L1153.38 378.567V508.301H1009.41V364.295H1139.19ZM1153.38 350.108L1139.79 363.705H1009.41V219.698H1153.38V350.108ZM-2.49426 219.698H141.474V363.705H-2.49426V219.698ZM286.031 219.698H142.064V363.705H286.031V219.698ZM286.621 219.698H430.589V363.705H286.621V219.698ZM864.263 219.698H720.295V363.705H864.263V219.698ZM864.853 219.698H1008.82V363.705H864.853V219.698ZM-2.49426 364.295H141.474V508.301H-2.49426V364.295ZM286.031 364.295H142.064V508.301H246.252L246.065 508.114L246.456 507.723L286.031 468.137V364.295ZM286.031 468.918L246.846 508.114L247.034 508.301H271.68L271.493 508.114L286.031 493.571V468.918ZM286.621 492.981V468.328L286.792 468.158L326.737 508.114L326.55 508.301H301.904L302.091 508.114L286.792 492.81L286.621 492.981ZM286.621 523.247L286.792 523.417L301.314 508.891H325.96L286.792 548.07L286.621 547.899V523.247ZM272.27 508.891L286.031 522.657V547.309L247.624 508.891H272.27ZM246.843 508.891H142.064V652.898H286.031V548.091L246.843 508.891ZM286.621 548.681V652.898H430.589V508.891H326.741L287.182 548.461L286.792 548.851L286.621 548.681ZM327.331 508.301H430.589V364.295H286.621V467.547L286.792 467.376L287.182 467.767L327.128 507.723L327.518 508.114L327.331 508.301ZM575.147 364.295H431.179V508.301H575.147V364.295ZM575.737 364.295H719.705V508.301H575.737V364.295ZM864.262 364.295H720.295V508.301H864.262V364.295ZM864.853 364.295H1008.82V508.301H864.853V364.295ZM1442.49 364.295H1298.53V508.301H1442.49V364.295ZM-2.49426 508.891H141.474V652.898H-2.49426V508.891ZM575.147 508.891H431.179V652.898H575.147V508.891ZM575.737 508.891H719.705V652.898H575.737V508.891ZM864.262 508.891H720.295V652.898H864.262V508.891ZM864.853 508.891H1008.82V652.898H864.853V508.891ZM1153.38 508.891H1009.41V652.898H1153.38V508.891ZM1153.97 508.891H1297.94V652.898H1153.97V508.891ZM1442.49 508.891H1298.53V652.898H1442.49V508.891ZM-2.49426 653.488H141.474V797.494H-2.49426V653.488ZM286.031 653.488H142.064V797.494H286.031V653.488ZM286.621 653.488H430.589V797.494H286.621V653.488ZM575.147 653.488H431.179V797.494H575.147V653.488ZM575.737 653.488H719.705V797.494H575.737V653.488ZM864.262 653.488H720.295V797.494H864.262V653.488ZM864.853 653.488H1008.82V797.494H864.853V653.488ZM1153.38 653.488H1009.41V797.494H1153.38V653.488ZM1153.97 653.488H1297.94V797.494H1153.97V653.488ZM1442.49 653.488H1298.53V797.494H1442.49V653.488Z" fill="url(#paint0_radial_736_579)" fill-opacity="0.5"/>
<g filter="url(#filter0_f_736_579)">
<ellipse cx="720" cy="340" rx="197" ry="99" fill="#3A3A15"/>
</g>
</g>
<defs>
<filter id="filter0_f_736_579" x="239" y="-43" width="962" height="766" filterUnits="userSpaceOnUse" color-interpolation-filters="sRGB">
<feFlood flood-opacity="0" result="BackgroundImageFix"/>
<feBlend mode="normal" in="SourceGraphic" in2="BackgroundImageFix" result="shape"/>
<feGaussianBlur stdDeviation="142" result="effect1_foregroundBlur_736_579"/>
</filter>
<radialGradient id="paint0_radial_736_579" cx="0" cy="0" r="1" gradientUnits="userSpaceOnUse" gradientTransform="translate(720 330.5) rotate(90) scale(403 671.357)">
<stop stop-color="#7BFF16" stop-opacity="0.8"/>
<stop offset="0.890424" stop-color="#7BFF16" stop-opacity="0"/>
</radialGradient>
<clipPath id="clip0_736_579">
<rect width="1440" height="680" fill="white"/>
</clipPath>
</defs>
</svg>
