<svg width="1440" height="1179" viewBox="0 0 1440 1179" fill="none" xmlns="http://www.w3.org/2000/svg">
<g filter="url(#filter0_f_1002_999)">
<circle cx="18" cy="398" r="187" fill="#0C372F"/>
</g>
<g filter="url(#filter1_f_1002_999)">
<circle cx="1415" cy="708" r="187" fill="#3D144A"/>
</g>
<path fill-rule="evenodd" clip-rule="evenodd" d="M137.672 0.509956H-7.49006V145.677H122.634L137.672 130.638V0.509956ZM153.112 145.677L138.268 130.832V0.509956H283.43V145.677H153.112ZM138.268 160.897L152.891 146.273H283.43V291.44H138.268V160.897ZM122.855 146.273L137.672 161.091V291.44H-7.49006V146.273H122.855ZM-8 0V145.763V146.187V291.525V291.95V437.287V437.712V583.05V583.475V728.813V729.237V875H137.758H138.182H283.515H283.94H429.272H429.697H575.03H575.455H720.787H721.212H866.545H866.97H1012.3H1012.73H1158.06H1158.48H1303.82H1304.24H1450L1450 729.237V583.475V583.05V437.287V291.95V146.187V145.763V0H1304.24H1303.82H1158.48H1158.06H1012.73H1012.3H866.97H866.545H721.212H720.787H575.455H575.03H429.697H429.272H283.94H283.515H138.182H137.758H-8ZM284.025 0.509956H429.187V145.677H284.025V0.509956ZM574.945 0.509956H429.782V145.677H574.945V0.509956ZM575.54 0.509956H720.702V145.677H575.54V0.509956ZM866.46 0.509956H721.297V145.677H866.46V0.509956ZM867.055 0.509956H1012.22V145.677H867.055V0.509956ZM1157.97 0.509956H1012.81V145.677H1157.97V0.509956ZM1158.57 0.509956H1303.73V145.677H1158.57V0.509956ZM1449.49 0.509956H1304.33V145.677H1449.49V0.509956ZM284.025 146.273H429.187V291.44H284.025V146.273ZM574.945 146.273H429.782V291.44H560.343L574.945 276.838V146.273ZM589.908 291.44L575.54 277.072V146.273H720.702V291.44H589.908ZM575.54 307.097L590.552 292.084L590.502 292.035H720.702V437.202H575.54V307.097ZM559.749 292.035L559.699 292.084L574.945 307.331V437.202H429.782V292.035H559.749ZM866.46 146.273H721.297V291.44H866.46V146.273ZM867.055 146.273H1012.22V291.44H867.055V146.273ZM1157.97 146.273H1012.81V291.44H1157.97V146.273ZM1158.57 146.273H1303.73V251.166L1303.49 251.412L1263.46 291.44H1158.57V146.273ZM1262.86 292.035H1158.57V422.901L1159.06 422.413L1173.85 437.202H1303.73V333.003L1303.49 332.757L1263.21 292.478L1262.81 292.084L1262.86 292.035ZM1303.73 332.216L1263.6 292.084L1263.65 292.035H1288.5L1288.45 292.084L1303.73 307.364V332.216ZM1304.33 332.703V437.202H1449.49V292.035H1344.89L1344.94 292.084L1344.55 292.478L1304.33 332.703ZM1344.11 292.035L1344.16 292.084L1304.33 331.915V307.064L1319.31 292.084L1319.26 292.035H1344.11ZM1344.3 291.44H1449.49V146.273H1304.33V251.466L1344.3 291.44ZM1304.33 252.254L1343.51 291.44H1318.66L1304.33 277.105V252.254ZM1303.73 251.954L1264.25 291.44H1289.1L1303.73 276.805V251.954ZM1158.57 452.779L1159.06 453.267L1174.48 437.84L1174.44 437.797H1303.73V582.965H1158.57V452.779ZM1143.67 437.797L1143.63 437.84L1157.97 452.185V582.965H1012.81V437.797H1143.67ZM1157.97 423.496L1144.27 437.202H1012.81V292.035H1157.97V423.496ZM-7.49006 292.035H137.672V437.202H-7.49006V292.035ZM283.43 292.035H138.268V437.202H283.43V292.035ZM284.025 292.035H429.187V437.202H284.025V292.035ZM866.46 292.035H721.298V437.202H866.46V292.035ZM867.055 292.035H1012.22V437.202H867.055V292.035ZM-7.49006 437.797H137.672V582.965H-7.49006V437.797ZM283.43 437.797H138.268V582.965H243.321L243.132 582.776L243.526 582.382L283.43 542.477V437.797ZM283.43 543.264L243.92 582.776L244.109 582.965H268.959L268.77 582.776L283.43 568.116V543.264ZM284.025 567.521V542.67L284.197 542.498L324.474 582.776L324.285 582.965H299.434L299.623 582.776L284.197 567.349L284.025 567.521ZM284.025 598.031L284.197 598.203L298.839 583.56H323.69L284.197 623.054L284.025 622.882V598.031ZM269.554 583.56L283.43 597.436V622.288L244.704 583.56H269.554ZM243.916 583.56H138.268V728.727H283.43V623.075L243.916 583.56ZM284.025 623.67V728.727H429.187V583.56H324.478L284.591 623.448L284.197 623.842L284.025 623.67ZM325.073 582.965H429.187V437.797H284.025V541.882L284.197 541.71L284.591 542.104L324.868 582.382L325.261 582.776L325.073 582.965ZM574.945 437.797H429.782V582.965H574.945V437.797ZM575.54 437.797H720.702V582.965H575.54V437.797ZM866.46 437.797H721.297V582.965H866.46V437.797ZM867.055 437.797H1012.22V582.965H867.055V437.797ZM1449.49 437.797H1304.33V582.965H1449.49V437.797ZM-7.49006 583.56H137.672V728.727H-7.49006V583.56ZM574.945 583.56H429.782V728.727H574.945V583.56ZM575.54 583.56H720.702V728.727H575.54V583.56ZM866.46 583.56H721.297V728.727H866.46V583.56ZM867.055 583.56H1012.22V728.727H867.055V583.56ZM1157.97 583.56H1012.81V728.727H1157.97V583.56ZM1158.57 583.56H1303.73V728.727H1158.57V583.56ZM1449.49 583.56H1304.33V728.727H1449.49V583.56ZM-7.49006 729.323H137.672V874.49H-7.49006V729.323ZM283.43 729.323H138.268V874.49H283.43V729.323ZM284.025 729.323H429.187V874.49H284.025V729.323ZM574.945 729.323H429.782V874.49H574.945V729.323ZM575.54 729.323H720.702V874.49H575.54V729.323ZM866.46 729.323H721.297V874.49H866.46V729.323ZM867.055 729.323H1012.22V874.49H867.055V729.323ZM1157.97 729.323H1012.81V874.49H1157.97V729.323ZM1158.57 729.323H1303.73V874.49H1158.57V729.323ZM1449.49 729.323H1304.33V874.49H1449.49V729.323Z" fill="url(#paint0_radial_1002_999)" fill-opacity="0.6"/>
<path fill-rule="evenodd" clip-rule="evenodd" d="M137.672 0.509956H-7.49006V145.677H122.634L137.672 130.638V0.509956ZM153.112 145.677L138.268 130.832V0.509956H283.43V145.677H153.112ZM138.268 160.897L152.891 146.273H283.43V291.44H138.268V160.897ZM122.855 146.273L137.672 161.091V291.44H-7.49006V146.273H122.855ZM-8 0V145.763V146.187V291.525V291.95V437.287V437.712V583.05V583.475V728.813V729.237V875H137.758H138.182H283.515H283.94H429.272H429.697H575.03H575.455H720.787H721.212H866.545H866.97H1012.3H1012.73H1158.06H1158.48H1303.82H1304.24H1450L1450 729.237V583.475V583.05V437.287V291.95V146.187V145.763V0H1304.24H1303.82H1158.48H1158.06H1012.73H1012.3H866.97H866.545H721.212H720.787H575.455H575.03H429.697H429.272H283.94H283.515H138.182H137.758H-8ZM284.025 0.509956H429.187V145.677H284.025V0.509956ZM574.945 0.509956H429.782V145.677H574.945V0.509956ZM575.54 0.509956H720.702V145.677H575.54V0.509956ZM866.46 0.509956H721.297V145.677H866.46V0.509956ZM867.055 0.509956H1012.22V145.677H867.055V0.509956ZM1157.97 0.509956H1012.81V145.677H1157.97V0.509956ZM1158.57 0.509956H1303.73V145.677H1158.57V0.509956ZM1449.49 0.509956H1304.33V145.677H1449.49V0.509956ZM284.025 146.273H429.187V291.44H284.025V146.273ZM574.945 146.273H429.782V291.44H560.343L574.945 276.838V146.273ZM589.908 291.44L575.54 277.072V146.273H720.702V291.44H589.908ZM575.54 307.097L590.552 292.084L590.502 292.035H720.702V437.202H575.54V307.097ZM559.749 292.035L559.699 292.084L574.945 307.331V437.202H429.782V292.035H559.749ZM866.46 146.273H721.297V291.44H866.46V146.273ZM867.055 146.273H1012.22V291.44H867.055V146.273ZM1157.97 146.273H1012.81V291.44H1157.97V146.273ZM1158.57 146.273H1303.73V251.166L1303.49 251.412L1263.46 291.44H1158.57V146.273ZM1262.86 292.035H1158.57V422.901L1159.06 422.413L1173.85 437.202H1303.73V333.003L1303.49 332.757L1263.21 292.478L1262.81 292.084L1262.86 292.035ZM1303.73 332.216L1263.6 292.084L1263.65 292.035H1288.5L1288.45 292.084L1303.73 307.364V332.216ZM1304.33 332.703V437.202H1449.49V292.035H1344.89L1344.94 292.084L1344.55 292.478L1304.33 332.703ZM1344.11 292.035L1344.16 292.084L1304.33 331.915V307.064L1319.31 292.084L1319.26 292.035H1344.11ZM1344.3 291.44H1449.49V146.273H1304.33V251.466L1344.3 291.44ZM1304.33 252.254L1343.51 291.44H1318.66L1304.33 277.105V252.254ZM1303.73 251.954L1264.25 291.44H1289.1L1303.73 276.805V251.954ZM1158.57 452.779L1159.06 453.267L1174.48 437.84L1174.44 437.797H1303.73V582.965H1158.57V452.779ZM1143.67 437.797L1143.63 437.84L1157.97 452.185V582.965H1012.81V437.797H1143.67ZM1157.97 423.496L1144.27 437.202H1012.81V292.035H1157.97V423.496ZM-7.49006 292.035H137.672V437.202H-7.49006V292.035ZM283.43 292.035H138.268V437.202H283.43V292.035ZM284.025 292.035H429.187V437.202H284.025V292.035ZM866.46 292.035H721.298V437.202H866.46V292.035ZM867.055 292.035H1012.22V437.202H867.055V292.035ZM-7.49006 437.797H137.672V582.965H-7.49006V437.797ZM283.43 437.797H138.268V582.965H243.321L243.132 582.776L243.526 582.382L283.43 542.477V437.797ZM283.43 543.264L243.92 582.776L244.109 582.965H268.959L268.77 582.776L283.43 568.116V543.264ZM284.025 567.521V542.67L284.197 542.498L324.474 582.776L324.285 582.965H299.434L299.623 582.776L284.197 567.349L284.025 567.521ZM284.025 598.031L284.197 598.203L298.839 583.56H323.69L284.197 623.054L284.025 622.882V598.031ZM269.554 583.56L283.43 597.436V622.288L244.704 583.56H269.554ZM243.916 583.56H138.268V728.727H283.43V623.075L243.916 583.56ZM284.025 623.67V728.727H429.187V583.56H324.478L284.591 623.448L284.197 623.842L284.025 623.67ZM325.073 582.965H429.187V437.797H284.025V541.882L284.197 541.71L284.591 542.104L324.868 582.382L325.261 582.776L325.073 582.965ZM574.945 437.797H429.782V582.965H574.945V437.797ZM575.54 437.797H720.702V582.965H575.54V437.797ZM866.46 437.797H721.297V582.965H866.46V437.797ZM867.055 437.797H1012.22V582.965H867.055V437.797ZM1449.49 437.797H1304.33V582.965H1449.49V437.797ZM-7.49006 583.56H137.672V728.727H-7.49006V583.56ZM574.945 583.56H429.782V728.727H574.945V583.56ZM575.54 583.56H720.702V728.727H575.54V583.56ZM866.46 583.56H721.297V728.727H866.46V583.56ZM867.055 583.56H1012.22V728.727H867.055V583.56ZM1157.97 583.56H1012.81V728.727H1157.97V583.56ZM1158.57 583.56H1303.73V728.727H1158.57V583.56ZM1449.49 583.56H1304.33V728.727H1449.49V583.56ZM-7.49006 729.323H137.672V874.49H-7.49006V729.323ZM283.43 729.323H138.268V874.49H283.43V729.323ZM284.025 729.323H429.187V874.49H284.025V729.323ZM574.945 729.323H429.782V874.49H574.945V729.323ZM575.54 729.323H720.702V874.49H575.54V729.323ZM866.46 729.323H721.297V874.49H866.46V729.323ZM867.055 729.323H1012.22V874.49H867.055V729.323ZM1157.97 729.323H1012.81V874.49H1157.97V729.323ZM1158.57 729.323H1303.73V874.49H1158.57V729.323ZM1449.49 729.323H1304.33V874.49H1449.49V729.323Z" fill="url(#paint1_radial_1002_999)" fill-opacity="0.6"/>
<defs>
<filter id="filter0_f_1002_999" x="-453" y="-73" width="942" height="942" filterUnits="userSpaceOnUse" color-interpolation-filters="sRGB">
<feFlood flood-opacity="0" result="BackgroundImageFix"/>
<feBlend mode="normal" in="SourceGraphic" in2="BackgroundImageFix" result="shape"/>
<feGaussianBlur stdDeviation="142" result="effect1_foregroundBlur_1002_999"/>
</filter>
<filter id="filter1_f_1002_999" x="944" y="237" width="942" height="942" filterUnits="userSpaceOnUse" color-interpolation-filters="sRGB">
<feFlood flood-opacity="0" result="BackgroundImageFix"/>
<feBlend mode="normal" in="SourceGraphic" in2="BackgroundImageFix" result="shape"/>
<feGaussianBlur stdDeviation="142" result="effect1_foregroundBlur_1002_999"/>
</filter>
<radialGradient id="paint0_radial_1002_999" cx="0" cy="0" r="1" gradientUnits="userSpaceOnUse" gradientTransform="translate(11.1577 -5.39942e-06) rotate(42.2964) scale(795.408 1325.04)">
<stop stop-color="white" stop-opacity="0.5"/>
<stop offset="0.737599" stop-color="white" stop-opacity="0"/>
</radialGradient>
<radialGradient id="paint1_radial_1002_999" cx="0" cy="0" r="1" gradientUnits="userSpaceOnUse" gradientTransform="translate(1526.5 659.5) rotate(-164.858) scale(779.048 1297.53)">
<stop stop-color="white" stop-opacity="0.5"/>
<stop offset="0.610971" stop-color="white" stop-opacity="0"/>
</radialGradient>
</defs>
</svg>
